<?xml version="1.0" encoding="utf-8" standalone="no"?>
<!DOCTYPE svg PUBLIC "-//W3C//DTD SVG 1.1//EN"
  "http://www.w3.org/Graphics/SVG/1.1/DTD/svg11.dtd">
<!-- Created with matplotlib (https://matplotlib.org/) -->
<svg height="345.6pt" version="1.1" viewBox="0 0 460.8 345.6" width="460.8pt" xmlns="http://www.w3.org/2000/svg" xmlns:xlink="http://www.w3.org/1999/xlink">
 <defs>
  <style type="text/css">
*{stroke-linecap:butt;stroke-linejoin:round;}
  </style>
 </defs>
 <g id="figure_1">
  <g id="patch_1">
   <path d="M 0 345.6 
L 460.8 345.6 
L 460.8 0 
L 0 0 
z
" style="fill:#ffffff;"/>
  </g>
  <g id="axes_1">
   <g id="patch_2">
    <path d="M 57.6 307.584 
L 414.72 307.584 
L 414.72 41.472 
L 57.6 41.472 
z
" style="fill:#ffffff;"/>
   </g>
   <g id="matplotlib.axis_1">
    <g id="xtick_1">
     <g id="line2d_1">
      <defs>
       <path d="M 0 0 
L 0 3.5 
" id="mf8daa28b65" style="stroke:#000000;stroke-width:0.8;"/>
      </defs>
      <g>
       <use style="stroke:#000000;stroke-width:0.8;" x="73.832727" xlink:href="#mf8daa28b65" y="307.584"/>
      </g>
     </g>
     <g id="text_1">
      <!-- 0 -->
      <defs>
       <path d="M 31.78125 66.40625 
Q 24.171875 66.40625 20.328125 58.90625 
Q 16.5 51.421875 16.5 36.375 
Q 16.5 21.390625 20.328125 13.890625 
Q 24.171875 6.390625 31.78125 6.390625 
Q 39.453125 6.390625 43.28125 13.890625 
Q 47.125 21.390625 47.125 36.375 
Q 47.125 51.421875 43.28125 58.90625 
Q 39.453125 66.40625 31.78125 66.40625 
z
M 31.78125 74.21875 
Q 44.046875 74.21875 50.515625 64.515625 
Q 56.984375 54.828125 56.984375 36.375 
Q 56.984375 17.96875 50.515625 8.265625 
Q 44.046875 -1.421875 31.78125 -1.421875 
Q 19.53125 -1.421875 13.0625 8.265625 
Q 6.59375 17.96875 6.59375 36.375 
Q 6.59375 54.828125 13.0625 64.515625 
Q 19.53125 74.21875 31.78125 74.21875 
z
" id="DejaVuSans-48"/>
      </defs>
      <g transform="translate(70.651477 322.182437)scale(0.1 -0.1)">
       <use xlink:href="#DejaVuSans-48"/>
      </g>
     </g>
    </g>
    <g id="xtick_2">
     <g id="line2d_2">
      <g>
       <use style="stroke:#000000;stroke-width:0.8;" x="136.50735" xlink:href="#mf8daa28b65" y="307.584"/>
      </g>
     </g>
     <g id="text_2">
      <!-- 50 -->
      <defs>
       <path d="M 10.796875 72.90625 
L 49.515625 72.90625 
L 49.515625 64.59375 
L 19.828125 64.59375 
L 19.828125 46.734375 
Q 21.96875 47.46875 24.109375 47.828125 
Q 26.265625 48.1875 28.421875 48.1875 
Q 40.625 48.1875 47.75 41.5 
Q 54.890625 34.8125 54.890625 23.390625 
Q 54.890625 11.625 47.5625 5.09375 
Q 40.234375 -1.421875 26.90625 -1.421875 
Q 22.3125 -1.421875 17.546875 -0.640625 
Q 12.796875 0.140625 7.71875 1.703125 
L 7.71875 11.625 
Q 12.109375 9.234375 16.796875 8.0625 
Q 21.484375 6.890625 26.703125 6.890625 
Q 35.15625 6.890625 40.078125 11.328125 
Q 45.015625 15.765625 45.015625 23.390625 
Q 45.015625 31 40.078125 35.4375 
Q 35.15625 39.890625 26.703125 39.890625 
Q 22.75 39.890625 18.8125 39.015625 
Q 14.890625 38.140625 10.796875 36.28125 
z
" id="DejaVuSans-53"/>
      </defs>
      <g transform="translate(130.14485 322.182437)scale(0.1 -0.1)">
       <use xlink:href="#DejaVuSans-53"/>
       <use x="63.623047" xlink:href="#DejaVuSans-48"/>
      </g>
     </g>
    </g>
    <g id="xtick_3">
     <g id="line2d_3">
      <g>
       <use style="stroke:#000000;stroke-width:0.8;" x="199.181973" xlink:href="#mf8daa28b65" y="307.584"/>
      </g>
     </g>
     <g id="text_3">
      <!-- 100 -->
      <defs>
       <path d="M 12.40625 8.296875 
L 28.515625 8.296875 
L 28.515625 63.921875 
L 10.984375 60.40625 
L 10.984375 69.390625 
L 28.421875 72.90625 
L 38.28125 72.90625 
L 38.28125 8.296875 
L 54.390625 8.296875 
L 54.390625 0 
L 12.40625 0 
z
" id="DejaVuSans-49"/>
      </defs>
      <g transform="translate(189.638223 322.182437)scale(0.1 -0.1)">
       <use xlink:href="#DejaVuSans-49"/>
       <use x="63.623047" xlink:href="#DejaVuSans-48"/>
       <use x="127.246094" xlink:href="#DejaVuSans-48"/>
      </g>
     </g>
    </g>
    <g id="xtick_4">
     <g id="line2d_4">
      <g>
       <use style="stroke:#000000;stroke-width:0.8;" x="261.856595" xlink:href="#mf8daa28b65" y="307.584"/>
      </g>
     </g>
     <g id="text_4">
      <!-- 150 -->
      <g transform="translate(252.312845 322.182437)scale(0.1 -0.1)">
       <use xlink:href="#DejaVuSans-49"/>
       <use x="63.623047" xlink:href="#DejaVuSans-53"/>
       <use x="127.246094" xlink:href="#DejaVuSans-48"/>
      </g>
     </g>
    </g>
    <g id="xtick_5">
     <g id="line2d_5">
      <g>
       <use style="stroke:#000000;stroke-width:0.8;" x="324.531218" xlink:href="#mf8daa28b65" y="307.584"/>
      </g>
     </g>
     <g id="text_5">
      <!-- 200 -->
      <defs>
       <path d="M 19.1875 8.296875 
L 53.609375 8.296875 
L 53.609375 0 
L 7.328125 0 
L 7.328125 8.296875 
Q 12.9375 14.109375 22.625 23.890625 
Q 32.328125 33.6875 34.8125 36.53125 
Q 39.546875 41.84375 41.421875 45.53125 
Q 43.3125 49.21875 43.3125 52.78125 
Q 43.3125 58.59375 39.234375 62.25 
Q 35.15625 65.921875 28.609375 65.921875 
Q 23.96875 65.921875 18.8125 64.3125 
Q 13.671875 62.703125 7.8125 59.421875 
L 7.8125 69.390625 
Q 13.765625 71.78125 18.9375 73 
Q 24.125 74.21875 28.421875 74.21875 
Q 39.75 74.21875 46.484375 68.546875 
Q 53.21875 62.890625 53.21875 53.421875 
Q 53.21875 48.921875 51.53125 44.890625 
Q 49.859375 40.875 45.40625 35.40625 
Q 44.1875 33.984375 37.640625 27.21875 
Q 31.109375 20.453125 19.1875 8.296875 
z
" id="DejaVuSans-50"/>
      </defs>
      <g transform="translate(314.987468 322.182437)scale(0.1 -0.1)">
       <use xlink:href="#DejaVuSans-50"/>
       <use x="63.623047" xlink:href="#DejaVuSans-48"/>
       <use x="127.246094" xlink:href="#DejaVuSans-48"/>
      </g>
     </g>
    </g>
    <g id="xtick_6">
     <g id="line2d_6">
      <g>
       <use style="stroke:#000000;stroke-width:0.8;" x="387.205841" xlink:href="#mf8daa28b65" y="307.584"/>
      </g>
     </g>
     <g id="text_6">
      <!-- 250 -->
      <g transform="translate(377.662091 322.182437)scale(0.1 -0.1)">
       <use xlink:href="#DejaVuSans-50"/>
       <use x="63.623047" xlink:href="#DejaVuSans-53"/>
       <use x="127.246094" xlink:href="#DejaVuSans-48"/>
      </g>
     </g>
    </g>
    <g id="text_7">
     <!-- epoch -->
     <defs>
      <path d="M 56.203125 29.59375 
L 56.203125 25.203125 
L 14.890625 25.203125 
Q 15.484375 15.921875 20.484375 11.0625 
Q 25.484375 6.203125 34.421875 6.203125 
Q 39.59375 6.203125 44.453125 7.46875 
Q 49.3125 8.734375 54.109375 11.28125 
L 54.109375 2.78125 
Q 49.265625 0.734375 44.1875 -0.34375 
Q 39.109375 -1.421875 33.890625 -1.421875 
Q 20.796875 -1.421875 13.15625 6.1875 
Q 5.515625 13.8125 5.515625 26.8125 
Q 5.515625 40.234375 12.765625 48.109375 
Q 20.015625 56 32.328125 56 
Q 43.359375 56 49.78125 48.890625 
Q 56.203125 41.796875 56.203125 29.59375 
z
M 47.21875 32.234375 
Q 47.125 39.59375 43.09375 43.984375 
Q 39.0625 48.390625 32.421875 48.390625 
Q 24.90625 48.390625 20.390625 44.140625 
Q 15.875 39.890625 15.1875 32.171875 
z
" id="DejaVuSans-101"/>
      <path d="M 18.109375 8.203125 
L 18.109375 -20.796875 
L 9.078125 -20.796875 
L 9.078125 54.6875 
L 18.109375 54.6875 
L 18.109375 46.390625 
Q 20.953125 51.265625 25.265625 53.625 
Q 29.59375 56 35.59375 56 
Q 45.5625 56 51.78125 48.09375 
Q 58.015625 40.1875 58.015625 27.296875 
Q 58.015625 14.40625 51.78125 6.484375 
Q 45.5625 -1.421875 35.59375 -1.421875 
Q 29.59375 -1.421875 25.265625 0.953125 
Q 20.953125 3.328125 18.109375 8.203125 
z
M 48.6875 27.296875 
Q 48.6875 37.203125 44.609375 42.84375 
Q 40.53125 48.484375 33.40625 48.484375 
Q 26.265625 48.484375 22.1875 42.84375 
Q 18.109375 37.203125 18.109375 27.296875 
Q 18.109375 17.390625 22.1875 11.75 
Q 26.265625 6.109375 33.40625 6.109375 
Q 40.53125 6.109375 44.609375 11.75 
Q 48.6875 17.390625 48.6875 27.296875 
z
" id="DejaVuSans-112"/>
      <path d="M 30.609375 48.390625 
Q 23.390625 48.390625 19.1875 42.75 
Q 14.984375 37.109375 14.984375 27.296875 
Q 14.984375 17.484375 19.15625 11.84375 
Q 23.34375 6.203125 30.609375 6.203125 
Q 37.796875 6.203125 41.984375 11.859375 
Q 46.1875 17.53125 46.1875 27.296875 
Q 46.1875 37.015625 41.984375 42.703125 
Q 37.796875 48.390625 30.609375 48.390625 
z
M 30.609375 56 
Q 42.328125 56 49.015625 48.375 
Q 55.71875 40.765625 55.71875 27.296875 
Q 55.71875 13.875 49.015625 6.21875 
Q 42.328125 -1.421875 30.609375 -1.421875 
Q 18.84375 -1.421875 12.171875 6.21875 
Q 5.515625 13.875 5.515625 27.296875 
Q 5.515625 40.765625 12.171875 48.375 
Q 18.84375 56 30.609375 56 
z
" id="DejaVuSans-111"/>
      <path d="M 48.78125 52.59375 
L 48.78125 44.1875 
Q 44.96875 46.296875 41.140625 47.34375 
Q 37.3125 48.390625 33.40625 48.390625 
Q 24.65625 48.390625 19.8125 42.84375 
Q 14.984375 37.3125 14.984375 27.296875 
Q 14.984375 17.28125 19.8125 11.734375 
Q 24.65625 6.203125 33.40625 6.203125 
Q 37.3125 6.203125 41.140625 7.25 
Q 44.96875 8.296875 48.78125 10.40625 
L 48.78125 2.09375 
Q 45.015625 0.34375 40.984375 -0.53125 
Q 36.96875 -1.421875 32.421875 -1.421875 
Q 20.0625 -1.421875 12.78125 6.34375 
Q 5.515625 14.109375 5.515625 27.296875 
Q 5.515625 40.671875 12.859375 48.328125 
Q 20.21875 56 33.015625 56 
Q 37.15625 56 41.109375 55.140625 
Q 45.0625 54.296875 48.78125 52.59375 
z
" id="DejaVuSans-99"/>
      <path d="M 54.890625 33.015625 
L 54.890625 0 
L 45.90625 0 
L 45.90625 32.71875 
Q 45.90625 40.484375 42.875 44.328125 
Q 39.84375 48.1875 33.796875 48.1875 
Q 26.515625 48.1875 22.3125 43.546875 
Q 18.109375 38.921875 18.109375 30.90625 
L 18.109375 0 
L 9.078125 0 
L 9.078125 75.984375 
L 18.109375 75.984375 
L 18.109375 46.1875 
Q 21.34375 51.125 25.703125 53.5625 
Q 30.078125 56 35.796875 56 
Q 45.21875 56 50.046875 50.171875 
Q 54.890625 44.34375 54.890625 33.015625 
z
" id="DejaVuSans-104"/>
     </defs>
     <g transform="translate(220.931875 335.860562)scale(0.1 -0.1)">
      <use xlink:href="#DejaVuSans-101"/>
      <use x="61.523438" xlink:href="#DejaVuSans-112"/>
      <use x="125" xlink:href="#DejaVuSans-111"/>
      <use x="186.181641" xlink:href="#DejaVuSans-99"/>
      <use x="241.162109" xlink:href="#DejaVuSans-104"/>
     </g>
    </g>
   </g>
   <g id="matplotlib.axis_2">
    <g id="ytick_1">
     <g id="line2d_7">
      <defs>
       <path d="M 0 0 
L -3.5 0 
" id="mb8638b584c" style="stroke:#000000;stroke-width:0.8;"/>
      </defs>
      <g>
       <use style="stroke:#000000;stroke-width:0.8;" x="57.6" xlink:href="#mb8638b584c" y="290.635009"/>
      </g>
     </g>
     <g id="text_8">
      <!-- 60 -->
      <defs>
       <path d="M 33.015625 40.375 
Q 26.375 40.375 22.484375 35.828125 
Q 18.609375 31.296875 18.609375 23.390625 
Q 18.609375 15.53125 22.484375 10.953125 
Q 26.375 6.390625 33.015625 6.390625 
Q 39.65625 6.390625 43.53125 10.953125 
Q 47.40625 15.53125 47.40625 23.390625 
Q 47.40625 31.296875 43.53125 35.828125 
Q 39.65625 40.375 33.015625 40.375 
z
M 52.59375 71.296875 
L 52.59375 62.3125 
Q 48.875 64.0625 45.09375 64.984375 
Q 41.3125 65.921875 37.59375 65.921875 
Q 27.828125 65.921875 22.671875 59.328125 
Q 17.53125 52.734375 16.796875 39.40625 
Q 19.671875 43.65625 24.015625 45.921875 
Q 28.375 48.1875 33.59375 48.1875 
Q 44.578125 48.1875 50.953125 41.515625 
Q 57.328125 34.859375 57.328125 23.390625 
Q 57.328125 12.15625 50.6875 5.359375 
Q 44.046875 -1.421875 33.015625 -1.421875 
Q 20.359375 -1.421875 13.671875 8.265625 
Q 6.984375 17.96875 6.984375 36.375 
Q 6.984375 53.65625 15.1875 63.9375 
Q 23.390625 74.21875 37.203125 74.21875 
Q 40.921875 74.21875 44.703125 73.484375 
Q 48.484375 72.75 52.59375 71.296875 
z
" id="DejaVuSans-54"/>
      </defs>
      <g transform="translate(37.875 294.434228)scale(0.1 -0.1)">
       <use xlink:href="#DejaVuSans-54"/>
       <use x="63.623047" xlink:href="#DejaVuSans-48"/>
      </g>
     </g>
    </g>
    <g id="ytick_2">
     <g id="line2d_8">
      <g>
       <use style="stroke:#000000;stroke-width:0.8;" x="57.6" xlink:href="#mb8638b584c" y="258.916116"/>
      </g>
     </g>
     <g id="text_9">
      <!-- 80 -->
      <defs>
       <path d="M 31.78125 34.625 
Q 24.75 34.625 20.71875 30.859375 
Q 16.703125 27.09375 16.703125 20.515625 
Q 16.703125 13.921875 20.71875 10.15625 
Q 24.75 6.390625 31.78125 6.390625 
Q 38.8125 6.390625 42.859375 10.171875 
Q 46.921875 13.96875 46.921875 20.515625 
Q 46.921875 27.09375 42.890625 30.859375 
Q 38.875 34.625 31.78125 34.625 
z
M 21.921875 38.8125 
Q 15.578125 40.375 12.03125 44.71875 
Q 8.5 49.078125 8.5 55.328125 
Q 8.5 64.0625 14.71875 69.140625 
Q 20.953125 74.21875 31.78125 74.21875 
Q 42.671875 74.21875 48.875 69.140625 
Q 55.078125 64.0625 55.078125 55.328125 
Q 55.078125 49.078125 51.53125 44.71875 
Q 48 40.375 41.703125 38.8125 
Q 48.828125 37.15625 52.796875 32.3125 
Q 56.78125 27.484375 56.78125 20.515625 
Q 56.78125 9.90625 50.3125 4.234375 
Q 43.84375 -1.421875 31.78125 -1.421875 
Q 19.734375 -1.421875 13.25 4.234375 
Q 6.78125 9.90625 6.78125 20.515625 
Q 6.78125 27.484375 10.78125 32.3125 
Q 14.796875 37.15625 21.921875 38.8125 
z
M 18.3125 54.390625 
Q 18.3125 48.734375 21.84375 45.5625 
Q 25.390625 42.390625 31.78125 42.390625 
Q 38.140625 42.390625 41.71875 45.5625 
Q 45.3125 48.734375 45.3125 54.390625 
Q 45.3125 60.0625 41.71875 63.234375 
Q 38.140625 66.40625 31.78125 66.40625 
Q 25.390625 66.40625 21.84375 63.234375 
Q 18.3125 60.0625 18.3125 54.390625 
z
" id="DejaVuSans-56"/>
      </defs>
      <g transform="translate(37.875 262.715335)scale(0.1 -0.1)">
       <use xlink:href="#DejaVuSans-56"/>
       <use x="63.623047" xlink:href="#DejaVuSans-48"/>
      </g>
     </g>
    </g>
    <g id="ytick_3">
     <g id="line2d_9">
      <g>
       <use style="stroke:#000000;stroke-width:0.8;" x="57.6" xlink:href="#mb8638b584c" y="227.197222"/>
      </g>
     </g>
     <g id="text_10">
      <!-- 100 -->
      <g transform="translate(31.5125 230.996441)scale(0.1 -0.1)">
       <use xlink:href="#DejaVuSans-49"/>
       <use x="63.623047" xlink:href="#DejaVuSans-48"/>
       <use x="127.246094" xlink:href="#DejaVuSans-48"/>
      </g>
     </g>
    </g>
    <g id="ytick_4">
     <g id="line2d_10">
      <g>
       <use style="stroke:#000000;stroke-width:0.8;" x="57.6" xlink:href="#mb8638b584c" y="195.478329"/>
      </g>
     </g>
     <g id="text_11">
      <!-- 120 -->
      <g transform="translate(31.5125 199.277548)scale(0.1 -0.1)">
       <use xlink:href="#DejaVuSans-49"/>
       <use x="63.623047" xlink:href="#DejaVuSans-50"/>
       <use x="127.246094" xlink:href="#DejaVuSans-48"/>
      </g>
     </g>
    </g>
    <g id="ytick_5">
     <g id="line2d_11">
      <g>
       <use style="stroke:#000000;stroke-width:0.8;" x="57.6" xlink:href="#mb8638b584c" y="163.759436"/>
      </g>
     </g>
     <g id="text_12">
      <!-- 140 -->
      <defs>
       <path d="M 37.796875 64.3125 
L 12.890625 25.390625 
L 37.796875 25.390625 
z
M 35.203125 72.90625 
L 47.609375 72.90625 
L 47.609375 25.390625 
L 58.015625 25.390625 
L 58.015625 17.1875 
L 47.609375 17.1875 
L 47.609375 0 
L 37.796875 0 
L 37.796875 17.1875 
L 4.890625 17.1875 
L 4.890625 26.703125 
z
" id="DejaVuSans-52"/>
      </defs>
      <g transform="translate(31.5125 167.558654)scale(0.1 -0.1)">
       <use xlink:href="#DejaVuSans-49"/>
       <use x="63.623047" xlink:href="#DejaVuSans-52"/>
       <use x="127.246094" xlink:href="#DejaVuSans-48"/>
      </g>
     </g>
    </g>
    <g id="ytick_6">
     <g id="line2d_12">
      <g>
       <use style="stroke:#000000;stroke-width:0.8;" x="57.6" xlink:href="#mb8638b584c" y="132.040542"/>
      </g>
     </g>
     <g id="text_13">
      <!-- 160 -->
      <g transform="translate(31.5125 135.839761)scale(0.1 -0.1)">
       <use xlink:href="#DejaVuSans-49"/>
       <use x="63.623047" xlink:href="#DejaVuSans-54"/>
       <use x="127.246094" xlink:href="#DejaVuSans-48"/>
      </g>
     </g>
    </g>
    <g id="ytick_7">
     <g id="line2d_13">
      <g>
       <use style="stroke:#000000;stroke-width:0.8;" x="57.6" xlink:href="#mb8638b584c" y="100.321649"/>
      </g>
     </g>
     <g id="text_14">
      <!-- 180 -->
      <g transform="translate(31.5125 104.120868)scale(0.1 -0.1)">
       <use xlink:href="#DejaVuSans-49"/>
       <use x="63.623047" xlink:href="#DejaVuSans-56"/>
       <use x="127.246094" xlink:href="#DejaVuSans-48"/>
      </g>
     </g>
    </g>
    <g id="ytick_8">
     <g id="line2d_14">
      <g>
       <use style="stroke:#000000;stroke-width:0.8;" x="57.6" xlink:href="#mb8638b584c" y="68.602755"/>
      </g>
     </g>
     <g id="text_15">
      <!-- 200 -->
      <g transform="translate(31.5125 72.401974)scale(0.1 -0.1)">
       <use xlink:href="#DejaVuSans-50"/>
       <use x="63.623047" xlink:href="#DejaVuSans-48"/>
       <use x="127.246094" xlink:href="#DejaVuSans-48"/>
      </g>
     </g>
    </g>
    <g id="text_16">
     <!-- average MIS size predicted by setup_names -->
     <defs>
      <path d="M 34.28125 27.484375 
Q 23.390625 27.484375 19.1875 25 
Q 14.984375 22.515625 14.984375 16.5 
Q 14.984375 11.71875 18.140625 8.90625 
Q 21.296875 6.109375 26.703125 6.109375 
Q 34.1875 6.109375 38.703125 11.40625 
Q 43.21875 16.703125 43.21875 25.484375 
L 43.21875 27.484375 
z
M 52.203125 31.203125 
L 52.203125 0 
L 43.21875 0 
L 43.21875 8.296875 
Q 40.140625 3.328125 35.546875 0.953125 
Q 30.953125 -1.421875 24.3125 -1.421875 
Q 15.921875 -1.421875 10.953125 3.296875 
Q 6 8.015625 6 15.921875 
Q 6 25.140625 12.171875 29.828125 
Q 18.359375 34.515625 30.609375 34.515625 
L 43.21875 34.515625 
L 43.21875 35.40625 
Q 43.21875 41.609375 39.140625 45 
Q 35.0625 48.390625 27.6875 48.390625 
Q 23 48.390625 18.546875 47.265625 
Q 14.109375 46.140625 10.015625 43.890625 
L 10.015625 52.203125 
Q 14.9375 54.109375 19.578125 55.046875 
Q 24.21875 56 28.609375 56 
Q 40.484375 56 46.34375 49.84375 
Q 52.203125 43.703125 52.203125 31.203125 
z
" id="DejaVuSans-97"/>
      <path d="M 2.984375 54.6875 
L 12.5 54.6875 
L 29.59375 8.796875 
L 46.6875 54.6875 
L 56.203125 54.6875 
L 35.6875 0 
L 23.484375 0 
z
" id="DejaVuSans-118"/>
      <path d="M 41.109375 46.296875 
Q 39.59375 47.171875 37.8125 47.578125 
Q 36.03125 48 33.890625 48 
Q 26.265625 48 22.1875 43.046875 
Q 18.109375 38.09375 18.109375 28.8125 
L 18.109375 0 
L 9.078125 0 
L 9.078125 54.6875 
L 18.109375 54.6875 
L 18.109375 46.1875 
Q 20.953125 51.171875 25.484375 53.578125 
Q 30.03125 56 36.53125 56 
Q 37.453125 56 38.578125 55.875 
Q 39.703125 55.765625 41.0625 55.515625 
z
" id="DejaVuSans-114"/>
      <path d="M 45.40625 27.984375 
Q 45.40625 37.75 41.375 43.109375 
Q 37.359375 48.484375 30.078125 48.484375 
Q 22.859375 48.484375 18.828125 43.109375 
Q 14.796875 37.75 14.796875 27.984375 
Q 14.796875 18.265625 18.828125 12.890625 
Q 22.859375 7.515625 30.078125 7.515625 
Q 37.359375 7.515625 41.375 12.890625 
Q 45.40625 18.265625 45.40625 27.984375 
z
M 54.390625 6.78125 
Q 54.390625 -7.171875 48.1875 -13.984375 
Q 42 -20.796875 29.203125 -20.796875 
Q 24.46875 -20.796875 20.265625 -20.09375 
Q 16.0625 -19.390625 12.109375 -17.921875 
L 12.109375 -9.1875 
Q 16.0625 -11.328125 19.921875 -12.34375 
Q 23.78125 -13.375 27.78125 -13.375 
Q 36.625 -13.375 41.015625 -8.765625 
Q 45.40625 -4.15625 45.40625 5.171875 
L 45.40625 9.625 
Q 42.625 4.78125 38.28125 2.390625 
Q 33.9375 0 27.875 0 
Q 17.828125 0 11.671875 7.65625 
Q 5.515625 15.328125 5.515625 27.984375 
Q 5.515625 40.671875 11.671875 48.328125 
Q 17.828125 56 27.875 56 
Q 33.9375 56 38.28125 53.609375 
Q 42.625 51.21875 45.40625 46.390625 
L 45.40625 54.6875 
L 54.390625 54.6875 
z
" id="DejaVuSans-103"/>
      <path id="DejaVuSans-32"/>
      <path d="M 9.8125 72.90625 
L 24.515625 72.90625 
L 43.109375 23.296875 
L 61.8125 72.90625 
L 76.515625 72.90625 
L 76.515625 0 
L 66.890625 0 
L 66.890625 64.015625 
L 48.09375 14.015625 
L 38.1875 14.015625 
L 19.390625 64.015625 
L 19.390625 0 
L 9.8125 0 
z
" id="DejaVuSans-77"/>
      <path d="M 9.8125 72.90625 
L 19.671875 72.90625 
L 19.671875 0 
L 9.8125 0 
z
" id="DejaVuSans-73"/>
      <path d="M 53.515625 70.515625 
L 53.515625 60.890625 
Q 47.90625 63.578125 42.921875 64.890625 
Q 37.9375 66.21875 33.296875 66.21875 
Q 25.25 66.21875 20.875 63.09375 
Q 16.5 59.96875 16.5 54.203125 
Q 16.5 49.359375 19.40625 46.890625 
Q 22.3125 44.4375 30.421875 42.921875 
L 36.375 41.703125 
Q 47.40625 39.59375 52.65625 34.296875 
Q 57.90625 29 57.90625 20.125 
Q 57.90625 9.515625 50.796875 4.046875 
Q 43.703125 -1.421875 29.984375 -1.421875 
Q 24.8125 -1.421875 18.96875 -0.25 
Q 13.140625 0.921875 6.890625 3.21875 
L 6.890625 13.375 
Q 12.890625 10.015625 18.65625 8.296875 
Q 24.421875 6.59375 29.984375 6.59375 
Q 38.421875 6.59375 43.015625 9.90625 
Q 47.609375 13.234375 47.609375 19.390625 
Q 47.609375 24.75 44.3125 27.78125 
Q 41.015625 30.8125 33.5 32.328125 
L 27.484375 33.5 
Q 16.453125 35.6875 11.515625 40.375 
Q 6.59375 45.0625 6.59375 53.421875 
Q 6.59375 63.09375 13.40625 68.65625 
Q 20.21875 74.21875 32.171875 74.21875 
Q 37.3125 74.21875 42.625 73.28125 
Q 47.953125 72.359375 53.515625 70.515625 
z
" id="DejaVuSans-83"/>
      <path d="M 44.28125 53.078125 
L 44.28125 44.578125 
Q 40.484375 46.53125 36.375 47.5 
Q 32.28125 48.484375 27.875 48.484375 
Q 21.1875 48.484375 17.84375 46.4375 
Q 14.5 44.390625 14.5 40.28125 
Q 14.5 37.15625 16.890625 35.375 
Q 19.28125 33.59375 26.515625 31.984375 
L 29.59375 31.296875 
Q 39.15625 29.25 43.1875 25.515625 
Q 47.21875 21.78125 47.21875 15.09375 
Q 47.21875 7.46875 41.1875 3.015625 
Q 35.15625 -1.421875 24.609375 -1.421875 
Q 20.21875 -1.421875 15.453125 -0.5625 
Q 10.6875 0.296875 5.421875 2 
L 5.421875 11.28125 
Q 10.40625 8.6875 15.234375 7.390625 
Q 20.0625 6.109375 24.8125 6.109375 
Q 31.15625 6.109375 34.5625 8.28125 
Q 37.984375 10.453125 37.984375 14.40625 
Q 37.984375 18.0625 35.515625 20.015625 
Q 33.0625 21.96875 24.703125 23.78125 
L 21.578125 24.515625 
Q 13.234375 26.265625 9.515625 29.90625 
Q 5.8125 33.546875 5.8125 39.890625 
Q 5.8125 47.609375 11.28125 51.796875 
Q 16.75 56 26.8125 56 
Q 31.78125 56 36.171875 55.265625 
Q 40.578125 54.546875 44.28125 53.078125 
z
" id="DejaVuSans-115"/>
      <path d="M 9.421875 54.6875 
L 18.40625 54.6875 
L 18.40625 0 
L 9.421875 0 
z
M 9.421875 75.984375 
L 18.40625 75.984375 
L 18.40625 64.59375 
L 9.421875 64.59375 
z
" id="DejaVuSans-105"/>
      <path d="M 5.515625 54.6875 
L 48.1875 54.6875 
L 48.1875 46.484375 
L 14.40625 7.171875 
L 48.1875 7.171875 
L 48.1875 0 
L 4.296875 0 
L 4.296875 8.203125 
L 38.09375 47.515625 
L 5.515625 47.515625 
z
" id="DejaVuSans-122"/>
      <path d="M 45.40625 46.390625 
L 45.40625 75.984375 
L 54.390625 75.984375 
L 54.390625 0 
L 45.40625 0 
L 45.40625 8.203125 
Q 42.578125 3.328125 38.25 0.953125 
Q 33.9375 -1.421875 27.875 -1.421875 
Q 17.96875 -1.421875 11.734375 6.484375 
Q 5.515625 14.40625 5.515625 27.296875 
Q 5.515625 40.1875 11.734375 48.09375 
Q 17.96875 56 27.875 56 
Q 33.9375 56 38.25 53.625 
Q 42.578125 51.265625 45.40625 46.390625 
z
M 14.796875 27.296875 
Q 14.796875 17.390625 18.875 11.75 
Q 22.953125 6.109375 30.078125 6.109375 
Q 37.203125 6.109375 41.296875 11.75 
Q 45.40625 17.390625 45.40625 27.296875 
Q 45.40625 37.203125 41.296875 42.84375 
Q 37.203125 48.484375 30.078125 48.484375 
Q 22.953125 48.484375 18.875 42.84375 
Q 14.796875 37.203125 14.796875 27.296875 
z
" id="DejaVuSans-100"/>
      <path d="M 18.3125 70.21875 
L 18.3125 54.6875 
L 36.8125 54.6875 
L 36.8125 47.703125 
L 18.3125 47.703125 
L 18.3125 18.015625 
Q 18.3125 11.328125 20.140625 9.421875 
Q 21.96875 7.515625 27.59375 7.515625 
L 36.8125 7.515625 
L 36.8125 0 
L 27.59375 0 
Q 17.1875 0 13.234375 3.875 
Q 9.28125 7.765625 9.28125 18.015625 
L 9.28125 47.703125 
L 2.6875 47.703125 
L 2.6875 54.6875 
L 9.28125 54.6875 
L 9.28125 70.21875 
z
" id="DejaVuSans-116"/>
      <path d="M 48.6875 27.296875 
Q 48.6875 37.203125 44.609375 42.84375 
Q 40.53125 48.484375 33.40625 48.484375 
Q 26.265625 48.484375 22.1875 42.84375 
Q 18.109375 37.203125 18.109375 27.296875 
Q 18.109375 17.390625 22.1875 11.75 
Q 26.265625 6.109375 33.40625 6.109375 
Q 40.53125 6.109375 44.609375 11.75 
Q 48.6875 17.390625 48.6875 27.296875 
z
M 18.109375 46.390625 
Q 20.953125 51.265625 25.265625 53.625 
Q 29.59375 56 35.59375 56 
Q 45.5625 56 51.78125 48.09375 
Q 58.015625 40.1875 58.015625 27.296875 
Q 58.015625 14.40625 51.78125 6.484375 
Q 45.5625 -1.421875 35.59375 -1.421875 
Q 29.59375 -1.421875 25.265625 0.953125 
Q 20.953125 3.328125 18.109375 8.203125 
L 18.109375 0 
L 9.078125 0 
L 9.078125 75.984375 
L 18.109375 75.984375 
z
" id="DejaVuSans-98"/>
      <path d="M 32.171875 -5.078125 
Q 28.375 -14.84375 24.75 -17.8125 
Q 21.140625 -20.796875 15.09375 -20.796875 
L 7.90625 -20.796875 
L 7.90625 -13.28125 
L 13.1875 -13.28125 
Q 16.890625 -13.28125 18.9375 -11.515625 
Q 21 -9.765625 23.484375 -3.21875 
L 25.09375 0.875 
L 2.984375 54.6875 
L 12.5 54.6875 
L 29.59375 11.921875 
L 46.6875 54.6875 
L 56.203125 54.6875 
z
" id="DejaVuSans-121"/>
      <path d="M 8.5 21.578125 
L 8.5 54.6875 
L 17.484375 54.6875 
L 17.484375 21.921875 
Q 17.484375 14.15625 20.5 10.265625 
Q 23.53125 6.390625 29.59375 6.390625 
Q 36.859375 6.390625 41.078125 11.03125 
Q 45.3125 15.671875 45.3125 23.6875 
L 45.3125 54.6875 
L 54.296875 54.6875 
L 54.296875 0 
L 45.3125 0 
L 45.3125 8.40625 
Q 42.046875 3.421875 37.71875 1 
Q 33.40625 -1.421875 27.6875 -1.421875 
Q 18.265625 -1.421875 13.375 4.4375 
Q 8.5 10.296875 8.5 21.578125 
z
M 31.109375 56 
z
" id="DejaVuSans-117"/>
      <path d="M 50.984375 -16.609375 
L 50.984375 -23.578125 
L -0.984375 -23.578125 
L -0.984375 -16.609375 
z
" id="DejaVuSans-95"/>
      <path d="M 54.890625 33.015625 
L 54.890625 0 
L 45.90625 0 
L 45.90625 32.71875 
Q 45.90625 40.484375 42.875 44.328125 
Q 39.84375 48.1875 33.796875 48.1875 
Q 26.515625 48.1875 22.3125 43.546875 
Q 18.109375 38.921875 18.109375 30.90625 
L 18.109375 0 
L 9.078125 0 
L 9.078125 54.6875 
L 18.109375 54.6875 
L 18.109375 46.1875 
Q 21.34375 51.125 25.703125 53.5625 
Q 30.078125 56 35.796875 56 
Q 45.21875 56 50.046875 50.171875 
Q 54.890625 44.34375 54.890625 33.015625 
z
" id="DejaVuSans-110"/>
      <path d="M 52 44.1875 
Q 55.375 50.25 60.0625 53.125 
Q 64.75 56 71.09375 56 
Q 79.640625 56 84.28125 50.015625 
Q 88.921875 44.046875 88.921875 33.015625 
L 88.921875 0 
L 79.890625 0 
L 79.890625 32.71875 
Q 79.890625 40.578125 77.09375 44.375 
Q 74.3125 48.1875 68.609375 48.1875 
Q 61.625 48.1875 57.5625 43.546875 
Q 53.515625 38.921875 53.515625 30.90625 
L 53.515625 0 
L 44.484375 0 
L 44.484375 32.71875 
Q 44.484375 40.625 41.703125 44.40625 
Q 38.921875 48.1875 33.109375 48.1875 
Q 26.21875 48.1875 22.15625 43.53125 
Q 18.109375 38.875 18.109375 30.90625 
L 18.109375 0 
L 9.078125 0 
L 9.078125 54.6875 
L 18.109375 54.6875 
L 18.109375 46.1875 
Q 21.1875 51.21875 25.484375 53.609375 
Q 29.78125 56 35.6875 56 
Q 41.65625 56 45.828125 52.96875 
Q 50 49.953125 52 44.1875 
z
" id="DejaVuSans-109"/>
     </defs>
     <g transform="translate(25.154687 284.831906)rotate(-90)scale(0.1 -0.1)">
      <use xlink:href="#DejaVuSans-97"/>
      <use x="61.279297" xlink:href="#DejaVuSans-118"/>
      <use x="120.458984" xlink:href="#DejaVuSans-101"/>
      <use x="181.982422" xlink:href="#DejaVuSans-114"/>
      <use x="223.095703" xlink:href="#DejaVuSans-97"/>
      <use x="284.375" xlink:href="#DejaVuSans-103"/>
      <use x="347.851562" xlink:href="#DejaVuSans-101"/>
      <use x="409.375" xlink:href="#DejaVuSans-32"/>
      <use x="441.162109" xlink:href="#DejaVuSans-77"/>
      <use x="527.441406" xlink:href="#DejaVuSans-73"/>
      <use x="556.933594" xlink:href="#DejaVuSans-83"/>
      <use x="620.410156" xlink:href="#DejaVuSans-32"/>
      <use x="652.197266" xlink:href="#DejaVuSans-115"/>
      <use x="704.296875" xlink:href="#DejaVuSans-105"/>
      <use x="732.080078" xlink:href="#DejaVuSans-122"/>
      <use x="784.570312" xlink:href="#DejaVuSans-101"/>
      <use x="846.09375" xlink:href="#DejaVuSans-32"/>
      <use x="877.880859" xlink:href="#DejaVuSans-112"/>
      <use x="941.357422" xlink:href="#DejaVuSans-114"/>
      <use x="982.439453" xlink:href="#DejaVuSans-101"/>
      <use x="1043.962891" xlink:href="#DejaVuSans-100"/>
      <use x="1107.439453" xlink:href="#DejaVuSans-105"/>
      <use x="1135.222656" xlink:href="#DejaVuSans-99"/>
      <use x="1190.203125" xlink:href="#DejaVuSans-116"/>
      <use x="1229.412109" xlink:href="#DejaVuSans-101"/>
      <use x="1290.935547" xlink:href="#DejaVuSans-100"/>
      <use x="1354.412109" xlink:href="#DejaVuSans-32"/>
      <use x="1386.199219" xlink:href="#DejaVuSans-98"/>
      <use x="1449.675781" xlink:href="#DejaVuSans-121"/>
      <use x="1508.855469" xlink:href="#DejaVuSans-32"/>
      <use x="1540.642578" xlink:href="#DejaVuSans-115"/>
      <use x="1592.742188" xlink:href="#DejaVuSans-101"/>
      <use x="1654.265625" xlink:href="#DejaVuSans-116"/>
      <use x="1693.474609" xlink:href="#DejaVuSans-117"/>
      <use x="1756.853516" xlink:href="#DejaVuSans-112"/>
      <use x="1820.330078" xlink:href="#DejaVuSans-95"/>
      <use x="1870.330078" xlink:href="#DejaVuSans-110"/>
      <use x="1933.708984" xlink:href="#DejaVuSans-97"/>
      <use x="1994.988281" xlink:href="#DejaVuSans-109"/>
      <use x="2092.400391" xlink:href="#DejaVuSans-101"/>
      <use x="2153.923828" xlink:href="#DejaVuSans-115"/>
     </g>
    </g>
   </g>
   <g id="line2d_15">
    <path clip-path="url(#pdd01a61255)" d="M 73.832727 250.447171 
L 75.08622 252.191711 
L 76.339712 252.699213 
L 77.593205 252.350305 
" style="fill:none;stroke:#1f77b4;stroke-linecap:square;stroke-width:1.5;"/>
   </g>
   <g id="line2d_16">
    <path clip-path="url(#pdd01a61255)" d="M 73.832727 294.853622 
L 75.08622 292.91877 
L 76.339712 293.838618 
L 77.593205 292.760175 
L 78.846697 295.488 
L 80.10019 294.948779 
L 81.353682 269.224756 
L 82.607174 253.745936 
" style="fill:none;stroke:#ff7f0e;stroke-linecap:square;stroke-width:1.5;"/>
   </g>
   <g id="line2d_17">
    <path clip-path="url(#pdd01a61255)" d="M 73.832727 53.568 
L 75.08622 59.531152 
L 76.339712 60.704751 
L 77.593205 56.676452 
L 78.846697 60.926783 
L 80.10019 62.036945 
L 81.353682 55.693166 
L 82.607174 58.611304 
L 83.860667 57.88177 
L 85.114159 56.930203 
L 86.367652 62.481009 
L 88.874637 57.88177 
L 90.128129 70.156981 
L 91.381622 85.66752 
L 92.635114 79.260304 
L 93.888607 60.387562 
L 95.142099 62.385852 
L 96.395591 61.688037 
L 97.649084 56.803327 
L 98.902576 60.704751 
L 100.156069 61.148816 
L 101.409561 59.658028 
L 102.663054 61.561161 
L 103.916546 71.108548 
L 105.170039 70.093543 
L 106.423531 73.994967 
L 107.677024 70.47417 
L 108.930516 64.637894 
L 110.184008 64.066954 
L 111.437501 62.258977 
L 112.690993 70.379014 
L 113.944486 64.384143 
L 115.197978 62.005226 
L 116.451471 58.643023 
L 117.704963 59.118806 
L 118.958456 58.516147 
L 120.211948 56.549576 
L 121.465441 57.469424 
L 122.718933 60.197249 
L 123.972425 57.754894 
L 125.225918 56.739889 
L 126.47941 57.342548 
L 127.732903 58.230677 
L 128.986395 58.389272 
L 130.239888 54.805037 
L 131.49338 57.628018 
L 132.746873 59.182244 
L 134.000365 69.522603 
L 135.253857 55.56629 
L 136.50735 59.404276 
L 137.760842 61.117097 
L 139.014335 62.385852 
L 140.267827 60.641313 
L 141.52132 72.440742 
L 142.774812 86.397055 
L 144.028305 77.293732 
L 145.281797 78.752801 
L 146.53529 71.520894 
L 147.788782 68.571037 
L 149.042274 71.838083 
L 150.295767 72.853087 
L 151.549259 68.951663 
L 152.802752 82.749382 
L 154.056244 72.694493 
L 155.309737 73.075119 
L 156.563229 72.599336 
L 157.816722 65.684617 
L 159.070214 60.895064 
L 160.323707 71.647769 
L 161.577199 67.492594 
L 164.084184 61.87835 
L 165.337676 69.522603 
L 166.591169 74.058405 
L 167.844661 69.237133 
L 169.098154 73.836373 
L 170.351646 72.377304 
L 171.605139 77.0717 
L 172.858631 73.772935 
L 174.112124 96.959446 
L 175.365616 72.250428 
L 176.619108 68.444161 
L 177.872601 73.836373 
L 179.126093 70.696202 
L 180.379586 68.19041 
L 181.633078 69.649479 
L 182.886571 68.729631 
L 184.140063 63.87664 
L 185.393556 64.669613 
L 186.647048 70.030106 
L 187.900541 71.552613 
L 189.154033 67.080249 
L 190.407525 83.161728 
L 191.661018 74.090124 
L 192.91451 59.975216 
L 194.168003 62.829917 
L 195.421495 64.415862 
L 196.674988 63.3057 
L 197.92848 67.968378 
L 199.181973 64.764769 
L 200.435465 67.873221 
L 201.688958 83.574073 
L 202.94245 79.862963 
L 204.195942 64.859926 
L 205.449435 59.499433 
L 206.702927 64.16211 
L 207.95642 67.04853 
L 209.209912 65.970087 
L 210.463405 64.606175 
L 211.716897 72.313866 
L 212.97039 76.754511 
L 214.223882 81.734377 
L 215.477375 67.080249 
L 216.730867 58.16724 
L 217.984359 53.663157 
L 219.237852 56.264106 
L 220.491344 64.574456 
L 221.744837 59.499433 
L 222.998329 61.846631 
L 224.251822 57.279111 
L 225.505314 61.370848 
L 226.758807 59.689746 
L 228.012299 59.88006 
L 229.265792 55.85176 
L 230.519284 60.577875 
L 231.772776 64.511018 
L 233.026269 60.673032 
L 234.279761 60.070373 
L 235.533254 60.355843 
L 236.786746 60.482719 
L 238.040239 56.739889 
L 239.293731 59.816622 
L 240.547224 56.517857 
L 241.800716 60.641313 
L 243.054208 57.088797 
L 244.307701 56.739889 
L 245.561193 62.16382 
L 246.814686 59.59459 
L 248.068178 62.132101 
L 249.321671 59.182244 
L 250.575163 62.703041 
L 251.828656 63.337419 
L 253.082148 60.387562 
L 254.335641 72.567617 
L 255.589133 87.982999 
L 256.842625 79.260304 
L 258.096118 66.76306 
L 259.34961 60.895064 
L 260.603103 56.898484 
L 261.856595 61.561161 
L 263.110088 59.88006 
L 264.36358 60.355843 
L 265.617073 56.771608 
L 266.870565 58.294115 
L 268.124058 58.16724 
L 269.37755 63.178825 
L 270.631042 57.342548 
L 271.884535 57.342548 
L 273.138027 56.295825 
L 274.39152 59.784903 
L 275.645012 59.340839 
L 276.898505 56.866765 
L 278.151997 58.801617 
L 279.40549 56.4227 
L 280.658982 59.816622 
L 281.912475 57.342548 
L 283.165967 56.13723 
L 284.419459 62.290696 
L 285.672952 58.45271 
L 286.926444 59.848341 
L 288.179937 56.930203 
L 289.433429 55.058788 
L 290.686922 57.501143 
L 291.940414 57.659737 
L 293.193907 63.559451 
L 294.447399 61.751474 
L 295.700892 62.290696 
L 296.954384 57.659737 
L 298.207876 57.437705 
L 299.461369 60.070373 
L 300.714861 58.230677 
L 301.968354 56.771608 
L 303.221846 55.756604 
L 304.475339 57.152235 
L 305.728831 56.359263 
L 306.982324 54.487848 
L 308.235816 57.628018 
L 309.489309 54.805037 
L 310.742801 56.4227 
L 311.996293 59.848341 
L 313.249786 55.28082 
L 314.503278 56.961922 
L 315.756771 63.178825 
L 317.010263 65.367428 
L 318.263756 65.748055 
L 319.517248 60.133811 
L 320.770741 59.626309 
L 322.024233 58.928493 
L 323.277726 56.042074 
L 324.531218 60.451 
L 325.78471 55.471134 
L 327.038203 58.611304 
L 328.291695 55.534571 
L 329.545188 61.243972 
L 330.79868 58.357553 
L 332.052173 58.357553 
L 333.305665 59.562871 
L 334.559158 55.375977 
L 335.81265 60.260687 
L 337.066143 59.213963 
L 338.319635 59.150525 
L 339.573127 55.28082 
L 340.82662 59.816622 
L 342.080112 59.182244 
L 343.333605 62.44929 
L 344.587097 63.813203 
L 345.84059 63.686327 
L 347.094082 61.656318 
L 348.347575 58.928493 
L 349.601067 61.59288 
L 350.854559 62.258977 
L 352.108052 61.783193 
L 353.361544 63.400857 
L 354.615037 58.865055 
L 355.868529 60.958502 
L 357.122022 57.818332 
L 358.375514 60.006935 
L 359.629007 54.773318 
L 360.882499 57.342548 
L 362.135992 57.501143 
L 363.389484 58.16724 
L 364.642976 57.976926 
L 365.896469 59.531152 
L 367.149961 56.613014 
L 368.403454 55.883479 
L 369.656946 57.469424 
L 370.910439 58.357553 
L 372.163931 60.926783 
L 373.417424 61.085378 
L 374.670916 57.469424 
L 375.924409 58.357553 
L 378.431393 57.247392 
L 379.684886 58.611304 
L 380.938378 60.609594 
L 382.191871 60.768189 
L 383.445363 56.866765 
L 384.698856 56.771608 
L 385.952348 57.279111 
L 387.205841 58.896774 
L 389.712826 56.581295 
L 390.966318 59.975216 
L 392.21981 57.628018 
L 393.473303 59.435995 
L 394.726795 57.754894 
L 395.980288 58.389272 
L 397.23378 58.294115 
L 398.487273 59.721465 
L 398.487273 59.721465 
" style="fill:none;stroke:#2ca02c;stroke-linecap:square;stroke-width:1.5;"/>
   </g>
   <g id="patch_3">
    <path d="M 57.6 307.584 
L 57.6 41.472 
" style="fill:none;stroke:#000000;stroke-linecap:square;stroke-linejoin:miter;stroke-width:0.8;"/>
   </g>
   <g id="patch_4">
    <path d="M 414.72 307.584 
L 414.72 41.472 
" style="fill:none;stroke:#000000;stroke-linecap:square;stroke-linejoin:miter;stroke-width:0.8;"/>
   </g>
   <g id="patch_5">
    <path d="M 57.6 307.584 
L 414.72 307.584 
" style="fill:none;stroke:#000000;stroke-linecap:square;stroke-linejoin:miter;stroke-width:0.8;"/>
   </g>
   <g id="patch_6">
    <path d="M 57.6 41.472 
L 414.72 41.472 
" style="fill:none;stroke:#000000;stroke-linecap:square;stroke-linejoin:miter;stroke-width:0.8;"/>
   </g>
   <g id="text_17">
    <!-- Graph of setups' average performance during training against epoch -->
    <defs>
     <path d="M 59.515625 10.40625 
L 59.515625 29.984375 
L 43.40625 29.984375 
L 43.40625 38.09375 
L 69.28125 38.09375 
L 69.28125 6.78125 
Q 63.578125 2.734375 56.6875 0.65625 
Q 49.8125 -1.421875 42 -1.421875 
Q 24.90625 -1.421875 15.25 8.5625 
Q 5.609375 18.5625 5.609375 36.375 
Q 5.609375 54.25 15.25 64.234375 
Q 24.90625 74.21875 42 74.21875 
Q 49.125 74.21875 55.546875 72.453125 
Q 61.96875 70.703125 67.390625 67.28125 
L 67.390625 56.78125 
Q 61.921875 61.421875 55.765625 63.765625 
Q 49.609375 66.109375 42.828125 66.109375 
Q 29.4375 66.109375 22.71875 58.640625 
Q 16.015625 51.171875 16.015625 36.375 
Q 16.015625 21.625 22.71875 14.15625 
Q 29.4375 6.6875 42.828125 6.6875 
Q 48.046875 6.6875 52.140625 7.59375 
Q 56.25 8.5 59.515625 10.40625 
z
" id="DejaVuSans-71"/>
     <path d="M 37.109375 75.984375 
L 37.109375 68.5 
L 28.515625 68.5 
Q 23.6875 68.5 21.796875 66.546875 
Q 19.921875 64.59375 19.921875 59.515625 
L 19.921875 54.6875 
L 34.71875 54.6875 
L 34.71875 47.703125 
L 19.921875 47.703125 
L 19.921875 0 
L 10.890625 0 
L 10.890625 47.703125 
L 2.296875 47.703125 
L 2.296875 54.6875 
L 10.890625 54.6875 
L 10.890625 58.5 
Q 10.890625 67.625 15.140625 71.796875 
Q 19.390625 75.984375 28.609375 75.984375 
z
" id="DejaVuSans-102"/>
     <path d="M 17.921875 72.90625 
L 17.921875 45.796875 
L 9.625 45.796875 
L 9.625 72.90625 
z
" id="DejaVuSans-39"/>
    </defs>
    <g transform="translate(29.082188 35.472)scale(0.12 -0.12)">
     <use xlink:href="#DejaVuSans-71"/>
     <use x="77.490234" xlink:href="#DejaVuSans-114"/>
     <use x="118.603516" xlink:href="#DejaVuSans-97"/>
     <use x="179.882812" xlink:href="#DejaVuSans-112"/>
     <use x="243.359375" xlink:href="#DejaVuSans-104"/>
     <use x="306.738281" xlink:href="#DejaVuSans-32"/>
     <use x="338.525391" xlink:href="#DejaVuSans-111"/>
     <use x="399.707031" xlink:href="#DejaVuSans-102"/>
     <use x="434.912109" xlink:href="#DejaVuSans-32"/>
     <use x="466.699219" xlink:href="#DejaVuSans-115"/>
     <use x="518.798828" xlink:href="#DejaVuSans-101"/>
     <use x="580.322266" xlink:href="#DejaVuSans-116"/>
     <use x="619.53125" xlink:href="#DejaVuSans-117"/>
     <use x="682.910156" xlink:href="#DejaVuSans-112"/>
     <use x="746.386719" xlink:href="#DejaVuSans-115"/>
     <use x="798.486328" xlink:href="#DejaVuSans-39"/>
     <use x="825.976562" xlink:href="#DejaVuSans-32"/>
     <use x="857.763672" xlink:href="#DejaVuSans-97"/>
     <use x="919.042969" xlink:href="#DejaVuSans-118"/>
     <use x="978.222656" xlink:href="#DejaVuSans-101"/>
     <use x="1039.746094" xlink:href="#DejaVuSans-114"/>
     <use x="1080.859375" xlink:href="#DejaVuSans-97"/>
     <use x="1142.138672" xlink:href="#DejaVuSans-103"/>
     <use x="1205.615234" xlink:href="#DejaVuSans-101"/>
     <use x="1267.138672" xlink:href="#DejaVuSans-32"/>
     <use x="1298.925781" xlink:href="#DejaVuSans-112"/>
     <use x="1362.402344" xlink:href="#DejaVuSans-101"/>
     <use x="1423.925781" xlink:href="#DejaVuSans-114"/>
     <use x="1465.039062" xlink:href="#DejaVuSans-102"/>
     <use x="1500.244141" xlink:href="#DejaVuSans-111"/>
     <use x="1561.425781" xlink:href="#DejaVuSans-114"/>
     <use x="1602.523438" xlink:href="#DejaVuSans-109"/>
     <use x="1699.935547" xlink:href="#DejaVuSans-97"/>
     <use x="1761.214844" xlink:href="#DejaVuSans-110"/>
     <use x="1824.59375" xlink:href="#DejaVuSans-99"/>
     <use x="1879.574219" xlink:href="#DejaVuSans-101"/>
     <use x="1941.097656" xlink:href="#DejaVuSans-32"/>
     <use x="1972.884766" xlink:href="#DejaVuSans-100"/>
     <use x="2036.361328" xlink:href="#DejaVuSans-117"/>
     <use x="2099.740234" xlink:href="#DejaVuSans-114"/>
     <use x="2140.853516" xlink:href="#DejaVuSans-105"/>
     <use x="2168.636719" xlink:href="#DejaVuSans-110"/>
     <use x="2232.015625" xlink:href="#DejaVuSans-103"/>
     <use x="2295.492188" xlink:href="#DejaVuSans-32"/>
     <use x="2327.279297" xlink:href="#DejaVuSans-116"/>
     <use x="2366.488281" xlink:href="#DejaVuSans-114"/>
     <use x="2407.601562" xlink:href="#DejaVuSans-97"/>
     <use x="2468.880859" xlink:href="#DejaVuSans-105"/>
     <use x="2496.664062" xlink:href="#DejaVuSans-110"/>
     <use x="2560.042969" xlink:href="#DejaVuSans-105"/>
     <use x="2587.826172" xlink:href="#DejaVuSans-110"/>
     <use x="2651.205078" xlink:href="#DejaVuSans-103"/>
     <use x="2714.681641" xlink:href="#DejaVuSans-32"/>
     <use x="2746.46875" xlink:href="#DejaVuSans-97"/>
     <use x="2807.748047" xlink:href="#DejaVuSans-103"/>
     <use x="2871.224609" xlink:href="#DejaVuSans-97"/>
     <use x="2932.503906" xlink:href="#DejaVuSans-105"/>
     <use x="2960.287109" xlink:href="#DejaVuSans-110"/>
     <use x="3023.666016" xlink:href="#DejaVuSans-115"/>
     <use x="3075.765625" xlink:href="#DejaVuSans-116"/>
     <use x="3114.974609" xlink:href="#DejaVuSans-32"/>
     <use x="3146.761719" xlink:href="#DejaVuSans-101"/>
     <use x="3208.285156" xlink:href="#DejaVuSans-112"/>
     <use x="3271.761719" xlink:href="#DejaVuSans-111"/>
     <use x="3332.943359" xlink:href="#DejaVuSans-99"/>
     <use x="3387.923828" xlink:href="#DejaVuSans-104"/>
    </g>
   </g>
   <g id="legend_1">
    <g id="patch_7">
     <path d="M 198.615312 302.584 
L 407.72 302.584 
Q 409.72 302.584 409.72 300.584 
L 409.72 257.2715 
Q 409.72 255.2715 407.72 255.2715 
L 198.615312 255.2715 
Q 196.615312 255.2715 196.615312 257.2715 
L 196.615312 300.584 
Q 196.615312 302.584 198.615312 302.584 
z
" style="fill:#ffffff;opacity:0.8;stroke:#cccccc;stroke-linejoin:miter;"/>
    </g>
    <g id="line2d_18">
     <path d="M 200.615312 263.369937 
L 220.615312 263.369937 
" style="fill:none;stroke:#1f77b4;stroke-linecap:square;stroke-width:1.5;"/>
    </g>
    <g id="line2d_19"/>
    <g id="text_18">
     <!-- t001: 1 models, 4 epochs -->
     <defs>
      <path d="M 11.71875 12.40625 
L 22.015625 12.40625 
L 22.015625 0 
L 11.71875 0 
z
M 11.71875 51.703125 
L 22.015625 51.703125 
L 22.015625 39.3125 
L 11.71875 39.3125 
z
" id="DejaVuSans-58"/>
      <path d="M 9.421875 75.984375 
L 18.40625 75.984375 
L 18.40625 0 
L 9.421875 0 
z
" id="DejaVuSans-108"/>
      <path d="M 11.71875 12.40625 
L 22.015625 12.40625 
L 22.015625 4 
L 14.015625 -11.625 
L 7.71875 -11.625 
L 11.71875 4 
z
" id="DejaVuSans-44"/>
     </defs>
     <g transform="translate(228.615312 266.869937)scale(0.1 -0.1)">
      <use xlink:href="#DejaVuSans-116"/>
      <use x="39.208984" xlink:href="#DejaVuSans-48"/>
      <use x="102.832031" xlink:href="#DejaVuSans-48"/>
      <use x="166.455078" xlink:href="#DejaVuSans-49"/>
      <use x="230.078125" xlink:href="#DejaVuSans-58"/>
      <use x="263.769531" xlink:href="#DejaVuSans-32"/>
      <use x="295.556641" xlink:href="#DejaVuSans-49"/>
      <use x="359.179688" xlink:href="#DejaVuSans-32"/>
      <use x="390.966797" xlink:href="#DejaVuSans-109"/>
      <use x="488.378906" xlink:href="#DejaVuSans-111"/>
      <use x="549.560547" xlink:href="#DejaVuSans-100"/>
      <use x="613.037109" xlink:href="#DejaVuSans-101"/>
      <use x="674.560547" xlink:href="#DejaVuSans-108"/>
      <use x="702.34375" xlink:href="#DejaVuSans-115"/>
      <use x="754.443359" xlink:href="#DejaVuSans-44"/>
      <use x="786.230469" xlink:href="#DejaVuSans-32"/>
      <use x="818.017578" xlink:href="#DejaVuSans-52"/>
      <use x="881.640625" xlink:href="#DejaVuSans-32"/>
      <use x="913.427734" xlink:href="#DejaVuSans-101"/>
      <use x="974.951172" xlink:href="#DejaVuSans-112"/>
      <use x="1038.427734" xlink:href="#DejaVuSans-111"/>
      <use x="1099.609375" xlink:href="#DejaVuSans-99"/>
      <use x="1154.589844" xlink:href="#DejaVuSans-104"/>
      <use x="1217.96875" xlink:href="#DejaVuSans-115"/>
     </g>
    </g>
    <g id="line2d_20">
     <path d="M 200.615312 278.048063 
L 220.615312 278.048063 
" style="fill:none;stroke:#ff7f0e;stroke-linecap:square;stroke-width:1.5;"/>
    </g>
    <g id="line2d_21"/>
    <g id="text_19">
     <!-- u001: 1 models, 8 epochs -->
     <g transform="translate(228.615312 281.548063)scale(0.1 -0.1)">
      <use xlink:href="#DejaVuSans-117"/>
      <use x="63.378906" xlink:href="#DejaVuSans-48"/>
      <use x="127.001953" xlink:href="#DejaVuSans-48"/>
      <use x="190.625" xlink:href="#DejaVuSans-49"/>
      <use x="254.248047" xlink:href="#DejaVuSans-58"/>
      <use x="287.939453" xlink:href="#DejaVuSans-32"/>
      <use x="319.726562" xlink:href="#DejaVuSans-49"/>
      <use x="383.349609" xlink:href="#DejaVuSans-32"/>
      <use x="415.136719" xlink:href="#DejaVuSans-109"/>
      <use x="512.548828" xlink:href="#DejaVuSans-111"/>
      <use x="573.730469" xlink:href="#DejaVuSans-100"/>
      <use x="637.207031" xlink:href="#DejaVuSans-101"/>
      <use x="698.730469" xlink:href="#DejaVuSans-108"/>
      <use x="726.513672" xlink:href="#DejaVuSans-115"/>
      <use x="778.613281" xlink:href="#DejaVuSans-44"/>
      <use x="810.400391" xlink:href="#DejaVuSans-32"/>
      <use x="842.1875" xlink:href="#DejaVuSans-56"/>
      <use x="905.810547" xlink:href="#DejaVuSans-32"/>
      <use x="937.597656" xlink:href="#DejaVuSans-101"/>
      <use x="999.121094" xlink:href="#DejaVuSans-112"/>
      <use x="1062.597656" xlink:href="#DejaVuSans-111"/>
      <use x="1123.779297" xlink:href="#DejaVuSans-99"/>
      <use x="1178.759766" xlink:href="#DejaVuSans-104"/>
      <use x="1242.138672" xlink:href="#DejaVuSans-115"/>
     </g>
    </g>
    <g id="line2d_22">
     <path d="M 200.615312 292.726187 
L 220.615312 292.726187 
" style="fill:none;stroke:#2ca02c;stroke-linecap:square;stroke-width:1.5;"/>
    </g>
    <g id="line2d_23"/>
    <g id="text_20">
     <!-- n200_1.pick: 1 models, 260 epochs -->
     <defs>
      <path d="M 10.6875 12.40625 
L 21 12.40625 
L 21 0 
L 10.6875 0 
z
" id="DejaVuSans-46"/>
      <path d="M 9.078125 75.984375 
L 18.109375 75.984375 
L 18.109375 31.109375 
L 44.921875 54.6875 
L 56.390625 54.6875 
L 27.390625 29.109375 
L 57.625 0 
L 45.90625 0 
L 18.109375 26.703125 
L 18.109375 0 
L 9.078125 0 
z
" id="DejaVuSans-107"/>
     </defs>
     <g transform="translate(228.615312 296.226187)scale(0.1 -0.1)">
      <use xlink:href="#DejaVuSans-110"/>
      <use x="63.378906" xlink:href="#DejaVuSans-50"/>
      <use x="127.001953" xlink:href="#DejaVuSans-48"/>
      <use x="190.625" xlink:href="#DejaVuSans-48"/>
      <use x="254.248047" xlink:href="#DejaVuSans-95"/>
      <use x="304.248047" xlink:href="#DejaVuSans-49"/>
      <use x="367.871094" xlink:href="#DejaVuSans-46"/>
      <use x="399.658203" xlink:href="#DejaVuSans-112"/>
      <use x="463.134766" xlink:href="#DejaVuSans-105"/>
      <use x="490.917969" xlink:href="#DejaVuSans-99"/>
      <use x="545.898438" xlink:href="#DejaVuSans-107"/>
      <use x="603.808594" xlink:href="#DejaVuSans-58"/>
      <use x="637.5" xlink:href="#DejaVuSans-32"/>
      <use x="669.287109" xlink:href="#DejaVuSans-49"/>
      <use x="732.910156" xlink:href="#DejaVuSans-32"/>
      <use x="764.697266" xlink:href="#DejaVuSans-109"/>
      <use x="862.109375" xlink:href="#DejaVuSans-111"/>
      <use x="923.291016" xlink:href="#DejaVuSans-100"/>
      <use x="986.767578" xlink:href="#DejaVuSans-101"/>
      <use x="1048.291016" xlink:href="#DejaVuSans-108"/>
      <use x="1076.074219" xlink:href="#DejaVuSans-115"/>
      <use x="1128.173828" xlink:href="#DejaVuSans-44"/>
      <use x="1159.960938" xlink:href="#DejaVuSans-32"/>
      <use x="1191.748047" xlink:href="#DejaVuSans-50"/>
      <use x="1255.371094" xlink:href="#DejaVuSans-54"/>
      <use x="1318.994141" xlink:href="#DejaVuSans-48"/>
      <use x="1382.617188" xlink:href="#DejaVuSans-32"/>
      <use x="1414.404297" xlink:href="#DejaVuSans-101"/>
      <use x="1475.927734" xlink:href="#DejaVuSans-112"/>
      <use x="1539.404297" xlink:href="#DejaVuSans-111"/>
      <use x="1600.585938" xlink:href="#DejaVuSans-99"/>
      <use x="1655.566406" xlink:href="#DejaVuSans-104"/>
      <use x="1718.945312" xlink:href="#DejaVuSans-115"/>
     </g>
    </g>
   </g>
  </g>
 </g>
 <defs>
  <clipPath id="pdd01a61255">
   <rect height="266.112" width="357.12" x="57.6" y="41.472"/>
  </clipPath>
 </defs>
</svg>
