<?xml version="1.0" encoding="utf-8" standalone="no"?>
<!DOCTYPE svg PUBLIC "-//W3C//DTD SVG 1.1//EN"
  "http://www.w3.org/Graphics/SVG/1.1/DTD/svg11.dtd">
<!-- Created with matplotlib (https://matplotlib.org/) -->
<svg height="345.6pt" version="1.1" viewBox="0 0 460.8 345.6" width="460.8pt" xmlns="http://www.w3.org/2000/svg" xmlns:xlink="http://www.w3.org/1999/xlink">
 <defs>
  <style type="text/css">
*{stroke-linecap:butt;stroke-linejoin:round;}
  </style>
 </defs>
 <g id="figure_1">
  <g id="patch_1">
   <path d="M 0 345.6 
L 460.8 345.6 
L 460.8 0 
L 0 0 
z
" style="fill:#ffffff;"/>
  </g>
  <g id="axes_1">
   <g id="patch_2">
    <path d="M 57.6 307.584 
L 414.72 307.584 
L 414.72 41.472 
L 57.6 41.472 
z
" style="fill:#ffffff;"/>
   </g>
   <g id="matplotlib.axis_1">
    <g id="xtick_1">
     <g id="line2d_1">
      <defs>
       <path d="M 0 0 
L 0 3.5 
" id="mb819554247" style="stroke:#000000;stroke-width:0.8;"/>
      </defs>
      <g>
       <use style="stroke:#000000;stroke-width:0.8;" x="73.832727" xlink:href="#mb819554247" y="307.584"/>
      </g>
     </g>
     <g id="text_1">
      <!-- 0 -->
      <defs>
       <path d="M 31.78125 66.40625 
Q 24.171875 66.40625 20.328125 58.90625 
Q 16.5 51.421875 16.5 36.375 
Q 16.5 21.390625 20.328125 13.890625 
Q 24.171875 6.390625 31.78125 6.390625 
Q 39.453125 6.390625 43.28125 13.890625 
Q 47.125 21.390625 47.125 36.375 
Q 47.125 51.421875 43.28125 58.90625 
Q 39.453125 66.40625 31.78125 66.40625 
z
M 31.78125 74.21875 
Q 44.046875 74.21875 50.515625 64.515625 
Q 56.984375 54.828125 56.984375 36.375 
Q 56.984375 17.96875 50.515625 8.265625 
Q 44.046875 -1.421875 31.78125 -1.421875 
Q 19.53125 -1.421875 13.0625 8.265625 
Q 6.59375 17.96875 6.59375 36.375 
Q 6.59375 54.828125 13.0625 64.515625 
Q 19.53125 74.21875 31.78125 74.21875 
z
" id="DejaVuSans-48"/>
      </defs>
      <g transform="translate(68.742727 326.7415)scale(0.16 -0.16)">
       <use xlink:href="#DejaVuSans-48"/>
      </g>
     </g>
    </g>
    <g id="xtick_2">
     <g id="line2d_2">
      <g>
       <use style="stroke:#000000;stroke-width:0.8;" x="155.404221" xlink:href="#mb819554247" y="307.584"/>
      </g>
     </g>
     <g id="text_2">
      <!-- 50 -->
      <defs>
       <path d="M 10.796875 72.90625 
L 49.515625 72.90625 
L 49.515625 64.59375 
L 19.828125 64.59375 
L 19.828125 46.734375 
Q 21.96875 47.46875 24.109375 47.828125 
Q 26.265625 48.1875 28.421875 48.1875 
Q 40.625 48.1875 47.75 41.5 
Q 54.890625 34.8125 54.890625 23.390625 
Q 54.890625 11.625 47.5625 5.09375 
Q 40.234375 -1.421875 26.90625 -1.421875 
Q 22.3125 -1.421875 17.546875 -0.640625 
Q 12.796875 0.140625 7.71875 1.703125 
L 7.71875 11.625 
Q 12.109375 9.234375 16.796875 8.0625 
Q 21.484375 6.890625 26.703125 6.890625 
Q 35.15625 6.890625 40.078125 11.328125 
Q 45.015625 15.765625 45.015625 23.390625 
Q 45.015625 31 40.078125 35.4375 
Q 35.15625 39.890625 26.703125 39.890625 
Q 22.75 39.890625 18.8125 39.015625 
Q 14.890625 38.140625 10.796875 36.28125 
z
" id="DejaVuSans-53"/>
      </defs>
      <g transform="translate(145.224221 326.7415)scale(0.16 -0.16)">
       <use xlink:href="#DejaVuSans-53"/>
       <use x="63.623047" xlink:href="#DejaVuSans-48"/>
      </g>
     </g>
    </g>
    <g id="xtick_3">
     <g id="line2d_3">
      <g>
       <use style="stroke:#000000;stroke-width:0.8;" x="236.975715" xlink:href="#mb819554247" y="307.584"/>
      </g>
     </g>
     <g id="text_3">
      <!-- 100 -->
      <defs>
       <path d="M 12.40625 8.296875 
L 28.515625 8.296875 
L 28.515625 63.921875 
L 10.984375 60.40625 
L 10.984375 69.390625 
L 28.421875 72.90625 
L 38.28125 72.90625 
L 38.28125 8.296875 
L 54.390625 8.296875 
L 54.390625 0 
L 12.40625 0 
z
" id="DejaVuSans-49"/>
      </defs>
      <g transform="translate(221.705715 326.7415)scale(0.16 -0.16)">
       <use xlink:href="#DejaVuSans-49"/>
       <use x="63.623047" xlink:href="#DejaVuSans-48"/>
       <use x="127.246094" xlink:href="#DejaVuSans-48"/>
      </g>
     </g>
    </g>
    <g id="xtick_4">
     <g id="line2d_4">
      <g>
       <use style="stroke:#000000;stroke-width:0.8;" x="318.547209" xlink:href="#mb819554247" y="307.584"/>
      </g>
     </g>
     <g id="text_4">
      <!-- 150 -->
      <g transform="translate(303.277209 326.7415)scale(0.16 -0.16)">
       <use xlink:href="#DejaVuSans-49"/>
       <use x="63.623047" xlink:href="#DejaVuSans-53"/>
       <use x="127.246094" xlink:href="#DejaVuSans-48"/>
      </g>
     </g>
    </g>
    <g id="xtick_5">
     <g id="line2d_5">
      <g>
       <use style="stroke:#000000;stroke-width:0.8;" x="400.118703" xlink:href="#mb819554247" y="307.584"/>
      </g>
     </g>
     <g id="text_5">
      <!-- 200 -->
      <defs>
       <path d="M 19.1875 8.296875 
L 53.609375 8.296875 
L 53.609375 0 
L 7.328125 0 
L 7.328125 8.296875 
Q 12.9375 14.109375 22.625 23.890625 
Q 32.328125 33.6875 34.8125 36.53125 
Q 39.546875 41.84375 41.421875 45.53125 
Q 43.3125 49.21875 43.3125 52.78125 
Q 43.3125 58.59375 39.234375 62.25 
Q 35.15625 65.921875 28.609375 65.921875 
Q 23.96875 65.921875 18.8125 64.3125 
Q 13.671875 62.703125 7.8125 59.421875 
L 7.8125 69.390625 
Q 13.765625 71.78125 18.9375 73 
Q 24.125 74.21875 28.421875 74.21875 
Q 39.75 74.21875 46.484375 68.546875 
Q 53.21875 62.890625 53.21875 53.421875 
Q 53.21875 48.921875 51.53125 44.890625 
Q 49.859375 40.875 45.40625 35.40625 
Q 44.1875 33.984375 37.640625 27.21875 
Q 31.109375 20.453125 19.1875 8.296875 
z
" id="DejaVuSans-50"/>
      </defs>
      <g transform="translate(384.848703 326.7415)scale(0.16 -0.16)">
       <use xlink:href="#DejaVuSans-50"/>
       <use x="63.623047" xlink:href="#DejaVuSans-48"/>
       <use x="127.246094" xlink:href="#DejaVuSans-48"/>
      </g>
     </g>
    </g>
    <g id="text_6">
     <!-- Epochs trained -->
     <defs>
      <path d="M 9.8125 72.90625 
L 55.90625 72.90625 
L 55.90625 64.59375 
L 19.671875 64.59375 
L 19.671875 43.015625 
L 54.390625 43.015625 
L 54.390625 34.71875 
L 19.671875 34.71875 
L 19.671875 8.296875 
L 56.78125 8.296875 
L 56.78125 0 
L 9.8125 0 
z
" id="DejaVuSans-69"/>
      <path d="M 18.109375 8.203125 
L 18.109375 -20.796875 
L 9.078125 -20.796875 
L 9.078125 54.6875 
L 18.109375 54.6875 
L 18.109375 46.390625 
Q 20.953125 51.265625 25.265625 53.625 
Q 29.59375 56 35.59375 56 
Q 45.5625 56 51.78125 48.09375 
Q 58.015625 40.1875 58.015625 27.296875 
Q 58.015625 14.40625 51.78125 6.484375 
Q 45.5625 -1.421875 35.59375 -1.421875 
Q 29.59375 -1.421875 25.265625 0.953125 
Q 20.953125 3.328125 18.109375 8.203125 
z
M 48.6875 27.296875 
Q 48.6875 37.203125 44.609375 42.84375 
Q 40.53125 48.484375 33.40625 48.484375 
Q 26.265625 48.484375 22.1875 42.84375 
Q 18.109375 37.203125 18.109375 27.296875 
Q 18.109375 17.390625 22.1875 11.75 
Q 26.265625 6.109375 33.40625 6.109375 
Q 40.53125 6.109375 44.609375 11.75 
Q 48.6875 17.390625 48.6875 27.296875 
z
" id="DejaVuSans-112"/>
      <path d="M 30.609375 48.390625 
Q 23.390625 48.390625 19.1875 42.75 
Q 14.984375 37.109375 14.984375 27.296875 
Q 14.984375 17.484375 19.15625 11.84375 
Q 23.34375 6.203125 30.609375 6.203125 
Q 37.796875 6.203125 41.984375 11.859375 
Q 46.1875 17.53125 46.1875 27.296875 
Q 46.1875 37.015625 41.984375 42.703125 
Q 37.796875 48.390625 30.609375 48.390625 
z
M 30.609375 56 
Q 42.328125 56 49.015625 48.375 
Q 55.71875 40.765625 55.71875 27.296875 
Q 55.71875 13.875 49.015625 6.21875 
Q 42.328125 -1.421875 30.609375 -1.421875 
Q 18.84375 -1.421875 12.171875 6.21875 
Q 5.515625 13.875 5.515625 27.296875 
Q 5.515625 40.765625 12.171875 48.375 
Q 18.84375 56 30.609375 56 
z
" id="DejaVuSans-111"/>
      <path d="M 48.78125 52.59375 
L 48.78125 44.1875 
Q 44.96875 46.296875 41.140625 47.34375 
Q 37.3125 48.390625 33.40625 48.390625 
Q 24.65625 48.390625 19.8125 42.84375 
Q 14.984375 37.3125 14.984375 27.296875 
Q 14.984375 17.28125 19.8125 11.734375 
Q 24.65625 6.203125 33.40625 6.203125 
Q 37.3125 6.203125 41.140625 7.25 
Q 44.96875 8.296875 48.78125 10.40625 
L 48.78125 2.09375 
Q 45.015625 0.34375 40.984375 -0.53125 
Q 36.96875 -1.421875 32.421875 -1.421875 
Q 20.0625 -1.421875 12.78125 6.34375 
Q 5.515625 14.109375 5.515625 27.296875 
Q 5.515625 40.671875 12.859375 48.328125 
Q 20.21875 56 33.015625 56 
Q 37.15625 56 41.109375 55.140625 
Q 45.0625 54.296875 48.78125 52.59375 
z
" id="DejaVuSans-99"/>
      <path d="M 54.890625 33.015625 
L 54.890625 0 
L 45.90625 0 
L 45.90625 32.71875 
Q 45.90625 40.484375 42.875 44.328125 
Q 39.84375 48.1875 33.796875 48.1875 
Q 26.515625 48.1875 22.3125 43.546875 
Q 18.109375 38.921875 18.109375 30.90625 
L 18.109375 0 
L 9.078125 0 
L 9.078125 75.984375 
L 18.109375 75.984375 
L 18.109375 46.1875 
Q 21.34375 51.125 25.703125 53.5625 
Q 30.078125 56 35.796875 56 
Q 45.21875 56 50.046875 50.171875 
Q 54.890625 44.34375 54.890625 33.015625 
z
" id="DejaVuSans-104"/>
      <path d="M 44.28125 53.078125 
L 44.28125 44.578125 
Q 40.484375 46.53125 36.375 47.5 
Q 32.28125 48.484375 27.875 48.484375 
Q 21.1875 48.484375 17.84375 46.4375 
Q 14.5 44.390625 14.5 40.28125 
Q 14.5 37.15625 16.890625 35.375 
Q 19.28125 33.59375 26.515625 31.984375 
L 29.59375 31.296875 
Q 39.15625 29.25 43.1875 25.515625 
Q 47.21875 21.78125 47.21875 15.09375 
Q 47.21875 7.46875 41.1875 3.015625 
Q 35.15625 -1.421875 24.609375 -1.421875 
Q 20.21875 -1.421875 15.453125 -0.5625 
Q 10.6875 0.296875 5.421875 2 
L 5.421875 11.28125 
Q 10.40625 8.6875 15.234375 7.390625 
Q 20.0625 6.109375 24.8125 6.109375 
Q 31.15625 6.109375 34.5625 8.28125 
Q 37.984375 10.453125 37.984375 14.40625 
Q 37.984375 18.0625 35.515625 20.015625 
Q 33.0625 21.96875 24.703125 23.78125 
L 21.578125 24.515625 
Q 13.234375 26.265625 9.515625 29.90625 
Q 5.8125 33.546875 5.8125 39.890625 
Q 5.8125 47.609375 11.28125 51.796875 
Q 16.75 56 26.8125 56 
Q 31.78125 56 36.171875 55.265625 
Q 40.578125 54.546875 44.28125 53.078125 
z
" id="DejaVuSans-115"/>
      <path id="DejaVuSans-32"/>
      <path d="M 18.3125 70.21875 
L 18.3125 54.6875 
L 36.8125 54.6875 
L 36.8125 47.703125 
L 18.3125 47.703125 
L 18.3125 18.015625 
Q 18.3125 11.328125 20.140625 9.421875 
Q 21.96875 7.515625 27.59375 7.515625 
L 36.8125 7.515625 
L 36.8125 0 
L 27.59375 0 
Q 17.1875 0 13.234375 3.875 
Q 9.28125 7.765625 9.28125 18.015625 
L 9.28125 47.703125 
L 2.6875 47.703125 
L 2.6875 54.6875 
L 9.28125 54.6875 
L 9.28125 70.21875 
z
" id="DejaVuSans-116"/>
      <path d="M 41.109375 46.296875 
Q 39.59375 47.171875 37.8125 47.578125 
Q 36.03125 48 33.890625 48 
Q 26.265625 48 22.1875 43.046875 
Q 18.109375 38.09375 18.109375 28.8125 
L 18.109375 0 
L 9.078125 0 
L 9.078125 54.6875 
L 18.109375 54.6875 
L 18.109375 46.1875 
Q 20.953125 51.171875 25.484375 53.578125 
Q 30.03125 56 36.53125 56 
Q 37.453125 56 38.578125 55.875 
Q 39.703125 55.765625 41.0625 55.515625 
z
" id="DejaVuSans-114"/>
      <path d="M 34.28125 27.484375 
Q 23.390625 27.484375 19.1875 25 
Q 14.984375 22.515625 14.984375 16.5 
Q 14.984375 11.71875 18.140625 8.90625 
Q 21.296875 6.109375 26.703125 6.109375 
Q 34.1875 6.109375 38.703125 11.40625 
Q 43.21875 16.703125 43.21875 25.484375 
L 43.21875 27.484375 
z
M 52.203125 31.203125 
L 52.203125 0 
L 43.21875 0 
L 43.21875 8.296875 
Q 40.140625 3.328125 35.546875 0.953125 
Q 30.953125 -1.421875 24.3125 -1.421875 
Q 15.921875 -1.421875 10.953125 3.296875 
Q 6 8.015625 6 15.921875 
Q 6 25.140625 12.171875 29.828125 
Q 18.359375 34.515625 30.609375 34.515625 
L 43.21875 34.515625 
L 43.21875 35.40625 
Q 43.21875 41.609375 39.140625 45 
Q 35.0625 48.390625 27.6875 48.390625 
Q 23 48.390625 18.546875 47.265625 
Q 14.109375 46.140625 10.015625 43.890625 
L 10.015625 52.203125 
Q 14.9375 54.109375 19.578125 55.046875 
Q 24.21875 56 28.609375 56 
Q 40.484375 56 46.34375 49.84375 
Q 52.203125 43.703125 52.203125 31.203125 
z
" id="DejaVuSans-97"/>
      <path d="M 9.421875 54.6875 
L 18.40625 54.6875 
L 18.40625 0 
L 9.421875 0 
z
M 9.421875 75.984375 
L 18.40625 75.984375 
L 18.40625 64.59375 
L 9.421875 64.59375 
z
" id="DejaVuSans-105"/>
      <path d="M 54.890625 33.015625 
L 54.890625 0 
L 45.90625 0 
L 45.90625 32.71875 
Q 45.90625 40.484375 42.875 44.328125 
Q 39.84375 48.1875 33.796875 48.1875 
Q 26.515625 48.1875 22.3125 43.546875 
Q 18.109375 38.921875 18.109375 30.90625 
L 18.109375 0 
L 9.078125 0 
L 9.078125 54.6875 
L 18.109375 54.6875 
L 18.109375 46.1875 
Q 21.34375 51.125 25.703125 53.5625 
Q 30.078125 56 35.796875 56 
Q 45.21875 56 50.046875 50.171875 
Q 54.890625 44.34375 54.890625 33.015625 
z
" id="DejaVuSans-110"/>
      <path d="M 56.203125 29.59375 
L 56.203125 25.203125 
L 14.890625 25.203125 
Q 15.484375 15.921875 20.484375 11.0625 
Q 25.484375 6.203125 34.421875 6.203125 
Q 39.59375 6.203125 44.453125 7.46875 
Q 49.3125 8.734375 54.109375 11.28125 
L 54.109375 2.78125 
Q 49.265625 0.734375 44.1875 -0.34375 
Q 39.109375 -1.421875 33.890625 -1.421875 
Q 20.796875 -1.421875 13.15625 6.1875 
Q 5.515625 13.8125 5.515625 26.8125 
Q 5.515625 40.234375 12.765625 48.109375 
Q 20.015625 56 32.328125 56 
Q 43.359375 56 49.78125 48.890625 
Q 56.203125 41.796875 56.203125 29.59375 
z
M 47.21875 32.234375 
Q 47.125 39.59375 43.09375 43.984375 
Q 39.0625 48.390625 32.421875 48.390625 
Q 24.90625 48.390625 20.390625 44.140625 
Q 15.875 39.890625 15.1875 32.171875 
z
" id="DejaVuSans-101"/>
      <path d="M 45.40625 46.390625 
L 45.40625 75.984375 
L 54.390625 75.984375 
L 54.390625 0 
L 45.40625 0 
L 45.40625 8.203125 
Q 42.578125 3.328125 38.25 0.953125 
Q 33.9375 -1.421875 27.875 -1.421875 
Q 17.96875 -1.421875 11.734375 6.484375 
Q 5.515625 14.40625 5.515625 27.296875 
Q 5.515625 40.1875 11.734375 48.09375 
Q 17.96875 56 27.875 56 
Q 33.9375 56 38.25 53.625 
Q 42.578125 51.265625 45.40625 46.390625 
z
M 14.796875 27.296875 
Q 14.796875 17.390625 18.875 11.75 
Q 22.953125 6.109375 30.078125 6.109375 
Q 37.203125 6.109375 41.296875 11.75 
Q 45.40625 17.390625 45.40625 27.296875 
Q 45.40625 37.203125 41.296875 42.84375 
Q 37.203125 48.484375 30.078125 48.484375 
Q 22.953125 48.484375 18.875 42.84375 
Q 14.796875 37.203125 14.796875 27.296875 
z
" id="DejaVuSans-100"/>
     </defs>
     <g transform="translate(176.33125 346.2265)scale(0.16 -0.16)">
      <use xlink:href="#DejaVuSans-69"/>
      <use x="63.183594" xlink:href="#DejaVuSans-112"/>
      <use x="126.660156" xlink:href="#DejaVuSans-111"/>
      <use x="187.841797" xlink:href="#DejaVuSans-99"/>
      <use x="242.822266" xlink:href="#DejaVuSans-104"/>
      <use x="306.201172" xlink:href="#DejaVuSans-115"/>
      <use x="358.300781" xlink:href="#DejaVuSans-32"/>
      <use x="390.087891" xlink:href="#DejaVuSans-116"/>
      <use x="429.296875" xlink:href="#DejaVuSans-114"/>
      <use x="470.410156" xlink:href="#DejaVuSans-97"/>
      <use x="531.689453" xlink:href="#DejaVuSans-105"/>
      <use x="559.472656" xlink:href="#DejaVuSans-110"/>
      <use x="622.851562" xlink:href="#DejaVuSans-101"/>
      <use x="684.375" xlink:href="#DejaVuSans-100"/>
     </g>
    </g>
   </g>
   <g id="matplotlib.axis_2">
    <g id="ytick_1">
     <g id="line2d_6">
      <defs>
       <path d="M 0 0 
L -3.5 0 
" id="m77e5519fbe" style="stroke:#000000;stroke-width:0.8;"/>
      </defs>
      <g>
       <use style="stroke:#000000;stroke-width:0.8;" x="57.6" xlink:href="#m77e5519fbe" y="275.044056"/>
      </g>
     </g>
     <g id="text_7">
      <!-- 30 -->
      <defs>
       <path d="M 40.578125 39.3125 
Q 47.65625 37.796875 51.625 33 
Q 55.609375 28.21875 55.609375 21.1875 
Q 55.609375 10.40625 48.1875 4.484375 
Q 40.765625 -1.421875 27.09375 -1.421875 
Q 22.515625 -1.421875 17.65625 -0.515625 
Q 12.796875 0.390625 7.625 2.203125 
L 7.625 11.71875 
Q 11.71875 9.328125 16.59375 8.109375 
Q 21.484375 6.890625 26.8125 6.890625 
Q 36.078125 6.890625 40.9375 10.546875 
Q 45.796875 14.203125 45.796875 21.1875 
Q 45.796875 27.640625 41.28125 31.265625 
Q 36.765625 34.90625 28.71875 34.90625 
L 20.21875 34.90625 
L 20.21875 43.015625 
L 29.109375 43.015625 
Q 36.375 43.015625 40.234375 45.921875 
Q 44.09375 48.828125 44.09375 54.296875 
Q 44.09375 59.90625 40.109375 62.90625 
Q 36.140625 65.921875 28.71875 65.921875 
Q 24.65625 65.921875 20.015625 65.03125 
Q 15.375 64.15625 9.8125 62.3125 
L 9.8125 71.09375 
Q 15.4375 72.65625 20.34375 73.4375 
Q 25.25 74.21875 29.59375 74.21875 
Q 40.828125 74.21875 47.359375 69.109375 
Q 53.90625 64.015625 53.90625 55.328125 
Q 53.90625 49.265625 50.4375 45.09375 
Q 46.96875 40.921875 40.578125 39.3125 
z
" id="DejaVuSans-51"/>
      </defs>
      <g transform="translate(30.24 281.122806)scale(0.16 -0.16)">
       <use xlink:href="#DejaVuSans-51"/>
       <use x="63.623047" xlink:href="#DejaVuSans-48"/>
      </g>
     </g>
    </g>
    <g id="ytick_2">
     <g id="line2d_7">
      <g>
       <use style="stroke:#000000;stroke-width:0.8;" x="57.6" xlink:href="#m77e5519fbe" y="240.970817"/>
      </g>
     </g>
     <g id="text_8">
      <!-- 32 -->
      <g transform="translate(30.24 247.049567)scale(0.16 -0.16)">
       <use xlink:href="#DejaVuSans-51"/>
       <use x="63.623047" xlink:href="#DejaVuSans-50"/>
      </g>
     </g>
    </g>
    <g id="ytick_3">
     <g id="line2d_8">
      <g>
       <use style="stroke:#000000;stroke-width:0.8;" x="57.6" xlink:href="#m77e5519fbe" y="206.897577"/>
      </g>
     </g>
     <g id="text_9">
      <!-- 34 -->
      <defs>
       <path d="M 37.796875 64.3125 
L 12.890625 25.390625 
L 37.796875 25.390625 
z
M 35.203125 72.90625 
L 47.609375 72.90625 
L 47.609375 25.390625 
L 58.015625 25.390625 
L 58.015625 17.1875 
L 47.609375 17.1875 
L 47.609375 0 
L 37.796875 0 
L 37.796875 17.1875 
L 4.890625 17.1875 
L 4.890625 26.703125 
z
" id="DejaVuSans-52"/>
      </defs>
      <g transform="translate(30.24 212.976327)scale(0.16 -0.16)">
       <use xlink:href="#DejaVuSans-51"/>
       <use x="63.623047" xlink:href="#DejaVuSans-52"/>
      </g>
     </g>
    </g>
    <g id="ytick_4">
     <g id="line2d_9">
      <g>
       <use style="stroke:#000000;stroke-width:0.8;" x="57.6" xlink:href="#m77e5519fbe" y="172.824338"/>
      </g>
     </g>
     <g id="text_10">
      <!-- 36 -->
      <defs>
       <path d="M 33.015625 40.375 
Q 26.375 40.375 22.484375 35.828125 
Q 18.609375 31.296875 18.609375 23.390625 
Q 18.609375 15.53125 22.484375 10.953125 
Q 26.375 6.390625 33.015625 6.390625 
Q 39.65625 6.390625 43.53125 10.953125 
Q 47.40625 15.53125 47.40625 23.390625 
Q 47.40625 31.296875 43.53125 35.828125 
Q 39.65625 40.375 33.015625 40.375 
z
M 52.59375 71.296875 
L 52.59375 62.3125 
Q 48.875 64.0625 45.09375 64.984375 
Q 41.3125 65.921875 37.59375 65.921875 
Q 27.828125 65.921875 22.671875 59.328125 
Q 17.53125 52.734375 16.796875 39.40625 
Q 19.671875 43.65625 24.015625 45.921875 
Q 28.375 48.1875 33.59375 48.1875 
Q 44.578125 48.1875 50.953125 41.515625 
Q 57.328125 34.859375 57.328125 23.390625 
Q 57.328125 12.15625 50.6875 5.359375 
Q 44.046875 -1.421875 33.015625 -1.421875 
Q 20.359375 -1.421875 13.671875 8.265625 
Q 6.984375 17.96875 6.984375 36.375 
Q 6.984375 53.65625 15.1875 63.9375 
Q 23.390625 74.21875 37.203125 74.21875 
Q 40.921875 74.21875 44.703125 73.484375 
Q 48.484375 72.75 52.59375 71.296875 
z
" id="DejaVuSans-54"/>
      </defs>
      <g transform="translate(30.24 178.903088)scale(0.16 -0.16)">
       <use xlink:href="#DejaVuSans-51"/>
       <use x="63.623047" xlink:href="#DejaVuSans-54"/>
      </g>
     </g>
    </g>
    <g id="ytick_5">
     <g id="line2d_10">
      <g>
       <use style="stroke:#000000;stroke-width:0.8;" x="57.6" xlink:href="#m77e5519fbe" y="138.751099"/>
      </g>
     </g>
     <g id="text_11">
      <!-- 38 -->
      <defs>
       <path d="M 31.78125 34.625 
Q 24.75 34.625 20.71875 30.859375 
Q 16.703125 27.09375 16.703125 20.515625 
Q 16.703125 13.921875 20.71875 10.15625 
Q 24.75 6.390625 31.78125 6.390625 
Q 38.8125 6.390625 42.859375 10.171875 
Q 46.921875 13.96875 46.921875 20.515625 
Q 46.921875 27.09375 42.890625 30.859375 
Q 38.875 34.625 31.78125 34.625 
z
M 21.921875 38.8125 
Q 15.578125 40.375 12.03125 44.71875 
Q 8.5 49.078125 8.5 55.328125 
Q 8.5 64.0625 14.71875 69.140625 
Q 20.953125 74.21875 31.78125 74.21875 
Q 42.671875 74.21875 48.875 69.140625 
Q 55.078125 64.0625 55.078125 55.328125 
Q 55.078125 49.078125 51.53125 44.71875 
Q 48 40.375 41.703125 38.8125 
Q 48.828125 37.15625 52.796875 32.3125 
Q 56.78125 27.484375 56.78125 20.515625 
Q 56.78125 9.90625 50.3125 4.234375 
Q 43.84375 -1.421875 31.78125 -1.421875 
Q 19.734375 -1.421875 13.25 4.234375 
Q 6.78125 9.90625 6.78125 20.515625 
Q 6.78125 27.484375 10.78125 32.3125 
Q 14.796875 37.15625 21.921875 38.8125 
z
M 18.3125 54.390625 
Q 18.3125 48.734375 21.84375 45.5625 
Q 25.390625 42.390625 31.78125 42.390625 
Q 38.140625 42.390625 41.71875 45.5625 
Q 45.3125 48.734375 45.3125 54.390625 
Q 45.3125 60.0625 41.71875 63.234375 
Q 38.140625 66.40625 31.78125 66.40625 
Q 25.390625 66.40625 21.84375 63.234375 
Q 18.3125 60.0625 18.3125 54.390625 
z
" id="DejaVuSans-56"/>
      </defs>
      <g transform="translate(30.24 144.829849)scale(0.16 -0.16)">
       <use xlink:href="#DejaVuSans-51"/>
       <use x="63.623047" xlink:href="#DejaVuSans-56"/>
      </g>
     </g>
    </g>
    <g id="ytick_6">
     <g id="line2d_11">
      <g>
       <use style="stroke:#000000;stroke-width:0.8;" x="57.6" xlink:href="#m77e5519fbe" y="104.677859"/>
      </g>
     </g>
     <g id="text_12">
      <!-- 40 -->
      <g transform="translate(30.24 110.756609)scale(0.16 -0.16)">
       <use xlink:href="#DejaVuSans-52"/>
       <use x="63.623047" xlink:href="#DejaVuSans-48"/>
      </g>
     </g>
    </g>
    <g id="ytick_7">
     <g id="line2d_12">
      <g>
       <use style="stroke:#000000;stroke-width:0.8;" x="57.6" xlink:href="#m77e5519fbe" y="70.60462"/>
      </g>
     </g>
     <g id="text_13">
      <!-- 42 -->
      <g transform="translate(30.24 76.68337)scale(0.16 -0.16)">
       <use xlink:href="#DejaVuSans-52"/>
       <use x="63.623047" xlink:href="#DejaVuSans-50"/>
      </g>
     </g>
    </g>
    <g id="text_14">
     <!-- Average $\alpha(G)$ predicted -->
     <defs>
      <path d="M 34.1875 63.1875 
L 20.796875 26.90625 
L 47.609375 26.90625 
z
M 28.609375 72.90625 
L 39.796875 72.90625 
L 67.578125 0 
L 57.328125 0 
L 50.6875 18.703125 
L 17.828125 18.703125 
L 11.1875 0 
L 0.78125 0 
z
" id="DejaVuSans-65"/>
      <path d="M 2.984375 54.6875 
L 12.5 54.6875 
L 29.59375 8.796875 
L 46.6875 54.6875 
L 56.203125 54.6875 
L 35.6875 0 
L 23.484375 0 
z
" id="DejaVuSans-118"/>
      <path d="M 45.40625 27.984375 
Q 45.40625 37.75 41.375 43.109375 
Q 37.359375 48.484375 30.078125 48.484375 
Q 22.859375 48.484375 18.828125 43.109375 
Q 14.796875 37.75 14.796875 27.984375 
Q 14.796875 18.265625 18.828125 12.890625 
Q 22.859375 7.515625 30.078125 7.515625 
Q 37.359375 7.515625 41.375 12.890625 
Q 45.40625 18.265625 45.40625 27.984375 
z
M 54.390625 6.78125 
Q 54.390625 -7.171875 48.1875 -13.984375 
Q 42 -20.796875 29.203125 -20.796875 
Q 24.46875 -20.796875 20.265625 -20.09375 
Q 16.0625 -19.390625 12.109375 -17.921875 
L 12.109375 -9.1875 
Q 16.0625 -11.328125 19.921875 -12.34375 
Q 23.78125 -13.375 27.78125 -13.375 
Q 36.625 -13.375 41.015625 -8.765625 
Q 45.40625 -4.15625 45.40625 5.171875 
L 45.40625 9.625 
Q 42.625 4.78125 38.28125 2.390625 
Q 33.9375 0 27.875 0 
Q 17.828125 0 11.671875 7.65625 
Q 5.515625 15.328125 5.515625 27.984375 
Q 5.515625 40.671875 11.671875 48.328125 
Q 17.828125 56 27.875 56 
Q 33.9375 56 38.28125 53.609375 
Q 42.625 51.21875 45.40625 46.390625 
L 45.40625 54.6875 
L 54.390625 54.6875 
z
" id="DejaVuSans-103"/>
      <path d="M 40.921875 25.4375 
L 40.96875 36.71875 
Q 41.015625 48.25 32.328125 48.296875 
Q 25.828125 48.34375 21.78125 42.921875 
Q 16.703125 36.234375 14.984375 27.296875 
Q 12.890625 16.546875 15.53125 11.421875 
Q 18.265625 6.203125 24.171875 6.203125 
Q 30.71875 6.203125 36.234375 16.609375 
z
M 33.84375 55.90625 
Q 49.078125 56.15625 48.875 40.375 
Q 48.875 40.375 56.5 54.6875 
L 64.5 54.6875 
L 48.734375 25.046875 
L 48.578125 14.359375 
Q 48.578125 11.96875 49.90625 9.96875 
Q 51.421875 7.625 52.984375 7.625 
L 57.328125 7.625 
L 55.859375 0 
L 50.4375 0 
Q 45.84375 0 42.53125 4.109375 
Q 40.96875 6.15625 40.921875 10.453125 
Q 37.75 5.21875 32.28125 0.78125 
Q 29.6875 -1.265625 22.703125 -1.21875 
Q 11.28125 -1.125 7.125 6.203125 
Q 2.875 13.8125 5.515625 27.296875 
Q 8.34375 41.796875 15.765625 48.390625 
Q 24.125 55.765625 33.84375 55.90625 
z
" id="DejaVuSans-Oblique-945"/>
      <path d="M 31 75.875 
Q 24.46875 64.65625 21.28125 53.65625 
Q 18.109375 42.671875 18.109375 31.390625 
Q 18.109375 20.125 21.3125 9.0625 
Q 24.515625 -2 31 -13.1875 
L 23.1875 -13.1875 
Q 15.875 -1.703125 12.234375 9.375 
Q 8.59375 20.453125 8.59375 31.390625 
Q 8.59375 42.28125 12.203125 53.3125 
Q 15.828125 64.359375 23.1875 75.875 
z
" id="DejaVuSans-40"/>
      <path d="M 54.59375 10.890625 
L 58.40625 29.984375 
L 42.1875 29.984375 
L 43.703125 38.09375 
L 69.578125 38.09375 
L 63.28125 6 
Q 56.78125 2.4375 49.109375 0.5 
Q 41.453125 -1.421875 33.6875 -1.421875 
Q 19.96875 -1.421875 12.234375 6.1875 
Q 4.5 13.8125 4.5 27.390625 
Q 4.5 38.671875 9.203125 48.84375 
Q 13.921875 59.03125 22.21875 65.828125 
Q 27.4375 70.0625 33.640625 72.140625 
Q 39.84375 74.21875 47.40625 74.21875 
Q 54.25 74.21875 60.515625 72.484375 
Q 66.796875 70.75 72.515625 67.28125 
L 70.515625 56.78125 
Q 66.109375 61.375 60.203125 63.796875 
Q 54.296875 66.21875 47.609375 66.21875 
Q 39.84375 66.21875 33.9375 63.25 
Q 28.03125 60.296875 23.390625 54.109375 
Q 19.4375 48.828125 17.15625 41.671875 
Q 14.890625 34.515625 14.890625 27.09375 
Q 14.890625 16.890625 20.109375 11.734375 
Q 25.34375 6.59375 35.6875 6.59375 
Q 40.875 6.59375 45.703125 7.6875 
Q 50.53125 8.796875 54.59375 10.890625 
z
" id="DejaVuSans-Oblique-71"/>
      <path d="M 8.015625 75.875 
L 15.828125 75.875 
Q 23.140625 64.359375 26.78125 53.3125 
Q 30.421875 42.28125 30.421875 31.390625 
Q 30.421875 20.453125 26.78125 9.375 
Q 23.140625 -1.703125 15.828125 -13.1875 
L 8.015625 -13.1875 
Q 14.5 -2 17.703125 9.0625 
Q 20.90625 20.125 20.90625 31.390625 
Q 20.90625 42.671875 17.703125 53.65625 
Q 14.5 64.65625 8.015625 75.875 
z
" id="DejaVuSans-41"/>
     </defs>
     <g transform="translate(22.88 268.848)rotate(-90)scale(0.16 -0.16)">
      <use transform="translate(0 0.015625)" xlink:href="#DejaVuSans-65"/>
      <use transform="translate(68.408203 0.015625)" xlink:href="#DejaVuSans-118"/>
      <use transform="translate(127.587891 0.015625)" xlink:href="#DejaVuSans-101"/>
      <use transform="translate(189.111328 0.015625)" xlink:href="#DejaVuSans-114"/>
      <use transform="translate(230.224609 0.015625)" xlink:href="#DejaVuSans-97"/>
      <use transform="translate(291.503906 0.015625)" xlink:href="#DejaVuSans-103"/>
      <use transform="translate(354.980469 0.015625)" xlink:href="#DejaVuSans-101"/>
      <use transform="translate(416.503906 0.015625)" xlink:href="#DejaVuSans-32"/>
      <use transform="translate(448.291016 0.015625)" xlink:href="#DejaVuSans-Oblique-945"/>
      <use transform="translate(514.208984 0.015625)" xlink:href="#DejaVuSans-40"/>
      <use transform="translate(553.222656 0.015625)" xlink:href="#DejaVuSans-Oblique-71"/>
      <use transform="translate(630.712891 0.015625)" xlink:href="#DejaVuSans-41"/>
      <use transform="translate(669.726562 0.015625)" xlink:href="#DejaVuSans-32"/>
      <use transform="translate(701.513672 0.015625)" xlink:href="#DejaVuSans-112"/>
      <use transform="translate(764.990234 0.015625)" xlink:href="#DejaVuSans-114"/>
      <use transform="translate(806.103516 0.015625)" xlink:href="#DejaVuSans-101"/>
      <use transform="translate(867.626953 0.015625)" xlink:href="#DejaVuSans-100"/>
      <use transform="translate(931.103516 0.015625)" xlink:href="#DejaVuSans-105"/>
      <use transform="translate(958.886719 0.015625)" xlink:href="#DejaVuSans-99"/>
      <use transform="translate(1013.867188 0.015625)" xlink:href="#DejaVuSans-116"/>
      <use transform="translate(1053.076172 0.015625)" xlink:href="#DejaVuSans-101"/>
      <use transform="translate(1114.599609 0.015625)" xlink:href="#DejaVuSans-100"/>
     </g>
    </g>
   </g>
   <g id="line2d_13">
    <path clip-path="url(#p0ec047b2df)" d="M 73.832727 79.12293 
L 75.464157 97.863211 
L 77.095587 67.197296 
L 78.727017 89.344901 
L 80.358447 70.60462 
L 81.989877 79.12293 
L 83.621307 92.752225 
L 85.252736 94.455887 
L 86.884166 102.974197 
L 88.515596 67.197296 
L 90.147026 65.493634 
L 91.778456 97.863211 
L 93.409886 84.233915 
L 95.041316 53.568 
L 96.672746 85.937577 
L 98.304175 91.048563 
L 99.935605 75.715606 
L 101.567035 87.641239 
L 103.198465 97.863211 
L 104.829895 75.715606 
L 106.461325 96.159549 
L 108.092755 77.419268 
L 109.724185 91.048563 
L 111.355614 85.937577 
L 112.987044 72.308282 
L 114.618474 89.344901 
L 116.249904 74.011944 
L 117.881334 77.419268 
L 119.512764 85.937577 
L 121.144194 74.011944 
L 122.775624 113.196169 
L 124.407053 72.308282 
L 126.038483 87.641239 
L 127.669913 58.678986 
L 129.301343 91.048563 
L 130.932773 80.826592 
L 132.564203 75.715606 
L 134.195633 99.566873 
L 135.827063 91.048563 
L 139.089922 77.419268 
L 140.721352 91.048563 
L 143.984212 80.826592 
L 145.615642 72.308282 
L 147.247072 72.308282 
L 148.878502 74.011944 
L 150.509931 74.011944 
L 152.141361 72.308282 
L 153.772791 91.048563 
L 155.404221 75.715606 
L 157.035651 77.419268 
L 158.667081 91.048563 
L 160.298511 80.826592 
L 161.929941 87.641239 
L 163.56137 65.493634 
L 165.1928 75.715606 
L 166.82423 92.752225 
L 168.45566 77.419268 
L 170.08709 85.937577 
L 171.71852 104.677859 
L 173.34995 91.048563 
L 174.98138 91.048563 
L 176.61281 89.344901 
L 178.244239 99.566873 
L 179.875669 92.752225 
L 181.507099 84.233915 
L 183.138529 77.419268 
L 186.401389 80.826592 
L 188.032819 87.641239 
L 189.664249 72.308282 
L 191.295678 75.715606 
L 192.927108 89.344901 
L 194.558538 85.937577 
L 196.189968 67.197296 
L 199.452828 87.641239 
L 201.084258 75.715606 
L 202.715688 87.641239 
L 204.347117 75.715606 
L 205.978547 75.715606 
L 207.609977 89.344901 
L 209.241407 82.530254 
L 210.872837 102.974197 
L 212.504267 65.493634 
L 214.135697 80.826592 
L 215.767127 87.641239 
L 217.398556 75.715606 
L 219.029986 99.566873 
L 220.661416 72.308282 
L 222.292846 75.715606 
L 223.924276 101.270535 
L 225.555706 92.752225 
L 227.187136 75.715606 
L 228.818566 94.455887 
L 230.449995 82.530254 
L 232.081425 68.900958 
L 233.712855 70.60462 
L 235.344285 84.233915 
L 236.975715 87.641239 
L 238.607145 82.530254 
L 240.238575 82.530254 
L 241.870005 102.974197 
L 243.501434 79.12293 
L 245.132864 53.568 
L 246.764294 75.715606 
L 248.395724 92.752225 
L 250.027154 72.308282 
L 251.658584 87.641239 
L 253.290014 85.937577 
L 254.921444 92.752225 
L 256.552873 84.233915 
L 258.184303 85.937577 
L 259.815733 79.12293 
L 261.447163 79.12293 
L 263.078593 111.492507 
L 264.710023 91.048563 
L 266.341453 101.270535 
L 267.972883 91.048563 
L 269.604312 101.270535 
L 271.235742 96.159549 
L 272.867172 85.937577 
L 274.498602 91.048563 
L 276.130032 99.566873 
L 277.761462 89.344901 
L 279.392892 97.863211 
L 281.024322 94.455887 
L 282.655751 99.566873 
L 284.287181 96.159549 
L 285.918611 82.530254 
L 287.550041 77.419268 
L 289.181471 85.937577 
L 290.812901 92.752225 
L 292.444331 75.715606 
L 294.075761 85.937577 
L 295.70719 102.974197 
L 297.33862 96.159549 
L 298.97005 77.419268 
L 300.60148 89.344901 
L 302.23291 92.752225 
L 303.86434 84.233915 
L 305.49577 80.826592 
L 307.1272 85.937577 
L 308.75863 94.455887 
L 310.390059 77.419268 
L 312.021489 108.085183 
L 313.652919 96.159549 
L 315.284349 91.048563 
L 316.915779 89.344901 
L 318.547209 89.344901 
L 320.178639 65.493634 
L 321.810069 96.159549 
L 323.441498 91.048563 
L 325.072928 97.863211 
L 326.704358 109.788845 
L 328.335788 82.530254 
L 329.967218 101.270535 
L 331.598648 84.233915 
L 333.230078 91.048563 
L 334.861508 92.752225 
L 336.492937 101.270535 
L 338.124367 87.641239 
L 339.755797 67.197296 
L 341.387227 106.381521 
L 343.018657 97.863211 
L 344.650087 108.085183 
L 346.281517 97.863211 
L 347.912947 104.677859 
L 349.544376 87.641239 
L 351.175806 97.863211 
L 352.807236 87.641239 
L 354.438666 106.381521 
L 356.070096 92.752225 
L 357.701526 82.530254 
L 359.332956 101.270535 
L 360.964386 82.530254 
L 362.595815 77.419268 
L 364.227245 99.566873 
L 365.858675 94.455887 
L 367.490105 77.419268 
L 369.121535 102.974197 
L 370.752965 97.863211 
L 372.384395 97.863211 
L 374.015825 120.010817 
L 375.647254 89.344901 
L 377.278684 89.344901 
L 378.910114 114.899831 
L 380.541544 80.826592 
L 382.172974 106.381521 
L 383.804404 104.677859 
L 385.435834 111.492507 
L 387.067264 99.566873 
L 388.698693 106.381521 
L 390.330123 96.159549 
L 391.961553 108.085183 
L 393.592983 92.752225 
L 395.224413 114.899831 
L 396.855843 99.566873 
L 398.487273 72.308282 
L 398.487273 72.308282 
" style="fill:none;stroke:#1f77b4;stroke-linecap:square;stroke-width:2;"/>
   </g>
   <g id="line2d_14">
    <path clip-path="url(#p0ec047b2df)" d="M 73.832727 104.677859 
L 75.464157 75.715606 
L 77.095587 74.011944 
L 78.727017 108.085183 
L 80.358447 75.715606 
L 81.989877 89.344901 
L 83.621307 104.677859 
L 85.252736 94.455887 
L 86.884166 60.382648 
L 88.515596 89.344901 
L 90.147026 80.826592 
L 91.778456 104.677859 
L 93.409886 77.419268 
L 95.041316 104.677859 
L 96.672746 77.419268 
L 98.304175 82.530254 
L 99.935605 96.159549 
L 101.567035 101.270535 
L 103.198465 89.344901 
L 104.829895 74.011944 
L 106.461325 74.011944 
L 108.092755 84.233915 
L 109.724185 85.937577 
L 111.355614 99.566873 
L 112.987044 102.974197 
L 114.618474 91.048563 
L 116.249904 89.344901 
L 117.881334 96.159549 
L 119.512764 92.752225 
L 121.144194 74.011944 
L 122.775624 97.863211 
L 124.407053 92.752225 
L 126.038483 99.566873 
L 127.669913 91.048563 
L 129.301343 79.12293 
L 130.932773 70.60462 
L 132.564203 72.308282 
L 134.195633 80.826592 
L 135.827063 85.937577 
L 137.458492 102.974197 
L 139.089922 75.715606 
L 140.721352 62.08631 
L 142.352782 99.566873 
L 143.984212 104.677859 
L 145.615642 99.566873 
L 147.247072 84.233915 
L 148.878502 94.455887 
L 150.509931 84.233915 
L 152.141361 84.233915 
L 153.772791 91.048563 
L 155.404221 91.048563 
L 157.035651 92.752225 
L 158.667081 92.752225 
L 160.298511 91.048563 
L 161.929941 70.60462 
L 163.56137 91.048563 
L 165.1928 68.900958 
L 166.82423 85.937577 
L 168.45566 89.344901 
L 170.08709 72.308282 
L 171.71852 89.344901 
L 173.34995 108.085183 
L 174.98138 74.011944 
L 176.61281 89.344901 
L 178.244239 77.419268 
L 179.875669 97.863211 
L 181.507099 75.715606 
L 183.138529 87.641239 
L 184.769959 87.641239 
L 186.401389 94.455887 
L 188.032819 108.085183 
L 189.664249 94.455887 
L 191.295678 55.271662 
L 192.927108 75.715606 
L 194.558538 67.197296 
L 196.189968 97.863211 
L 197.821398 72.308282 
L 199.452828 97.863211 
L 201.084258 70.60462 
L 202.715688 96.159549 
L 204.347117 94.455887 
L 205.978547 79.12293 
L 207.609977 80.826592 
L 209.241407 96.159549 
L 210.872837 91.048563 
L 212.504267 70.60462 
L 214.135697 97.863211 
L 215.767127 85.937577 
L 217.398556 94.455887 
L 219.029986 72.308282 
L 220.661416 92.752225 
L 222.292846 75.715606 
L 223.924276 92.752225 
L 225.555706 80.826592 
L 227.187136 72.308282 
L 228.818566 91.048563 
L 230.449995 80.826592 
L 232.081425 108.085183 
L 233.712855 80.826592 
" style="fill:none;stroke:#ff7f0e;stroke-dasharray:2,3.3;stroke-dashoffset:0;stroke-width:2;"/>
   </g>
   <g id="line2d_15">
    <path clip-path="url(#p0ec047b2df)" d="M 73.832727 133.640113 
L 75.464157 114.899831 
L 77.095587 118.307155 
L 78.727017 128.529127 
L 80.358447 75.715606 
L 81.989877 113.196169 
L 83.621307 77.419268 
L 85.252736 91.048563 
L 86.884166 106.381521 
L 88.515596 96.159549 
L 90.147026 91.048563 
L 91.778456 87.641239 
L 93.409886 97.863211 
L 95.041316 97.863211 
L 96.672746 91.048563 
L 98.304175 102.974197 
L 99.935605 74.011944 
L 101.567035 91.048563 
L 103.198465 80.826592 
L 104.829895 70.60462 
L 106.461325 80.826592 
L 108.092755 104.677859 
L 109.724185 77.419268 
L 111.355614 87.641239 
L 112.987044 75.715606 
" style="fill:none;stroke:#2ca02c;stroke-dasharray:7.4,3.2;stroke-dashoffset:0;stroke-width:2;"/>
   </g>
   <g id="line2d_16">
    <path clip-path="url(#p0ec047b2df)" d="M 73.832727 261.414761 
L 75.464157 281.858704 
L 77.095587 276.747718 
L 78.727017 281.858704 
L 80.358447 295.488 
L 81.989877 292.080676 
L 83.621307 276.747718 
L 85.252736 256.303775 
L 86.884166 220.526873 
L 88.515596 166.00969 
L 90.147026 212.008563 
L 91.778456 198.379268 
L 93.409886 259.711099 
L 95.041316 232.452507 
L 96.672746 271.636732 
L 98.304175 273.340394 
L 99.935605 266.525746 
L 101.567035 280.155042 
L 103.198465 273.340394 
" style="fill:none;stroke:#d62728;stroke-linecap:square;stroke-width:3.5;"/>
   </g>
   <g id="line2d_17">
    <path clip-path="url(#p0ec047b2df)" d="M 73.832727 53.568 
L 188.032819 53.568 
" style="fill:none;stroke:#9467bd;stroke-dasharray:3.5,5.775;stroke-dashoffset:0;stroke-width:3.5;"/>
   </g>
   <g id="patch_3">
    <path d="M 57.6 307.584 
L 57.6 41.472 
" style="fill:none;stroke:#000000;stroke-linecap:square;stroke-linejoin:miter;stroke-width:0.8;"/>
   </g>
   <g id="patch_4">
    <path d="M 414.72 307.584 
L 414.72 41.472 
" style="fill:none;stroke:#000000;stroke-linecap:square;stroke-linejoin:miter;stroke-width:0.8;"/>
   </g>
   <g id="patch_5">
    <path d="M 57.6 307.584 
L 414.72 307.584 
" style="fill:none;stroke:#000000;stroke-linecap:square;stroke-linejoin:miter;stroke-width:0.8;"/>
   </g>
   <g id="patch_6">
    <path d="M 57.6 41.472 
L 414.72 41.472 
" style="fill:none;stroke:#000000;stroke-linecap:square;stroke-linejoin:miter;stroke-width:0.8;"/>
   </g>
   <g id="legend_1">
    <g id="patch_7">
     <path d="M 261.28 299.584 
L 403.52 299.584 
Q 406.72 299.584 406.72 296.384 
L 406.72 180.559 
Q 406.72 177.359 403.52 177.359 
L 261.28 177.359 
Q 258.08 177.359 258.08 180.559 
L 258.08 296.384 
Q 258.08 299.584 261.28 299.584 
z
" style="fill:#ffffff;opacity:0.8;stroke:#cccccc;stroke-linejoin:miter;"/>
    </g>
    <g id="line2d_18">
     <path d="M 264.48 190.3165 
L 296.48 190.3165 
" style="fill:none;stroke:#1f77b4;stroke-linecap:square;stroke-width:2;"/>
    </g>
    <g id="line2d_19"/>
    <g id="text_15">
     <!-- $Q:V = 1$ -->
     <defs>
      <path d="M 36.078125 -1.3125 
Q 35.546875 -1.375 34.953125 -1.390625 
Q 34.375 -1.421875 33.203125 -1.421875 
Q 19.53125 -1.421875 11.8125 6.421875 
Q 4.109375 14.265625 4.109375 28.078125 
Q 4.109375 36.234375 7.0625 44.4375 
Q 10.015625 52.640625 15.28125 59.1875 
Q 21.390625 66.703125 29.03125 70.453125 
Q 36.671875 74.21875 45.90625 74.21875 
Q 59.28125 74.21875 66.984375 66.328125 
Q 74.703125 58.453125 74.703125 44.828125 
Q 74.703125 30.125 66.640625 17.921875 
Q 58.59375 5.71875 45.609375 0.6875 
L 55.515625 -12.890625 
L 44.484375 -12.890625 
z
M 45.609375 66.21875 
Q 37.5 66.21875 31.296875 62.28125 
Q 25.09375 58.34375 20.515625 50.296875 
Q 17.578125 45.171875 16.03125 39.40625 
Q 14.5 33.640625 14.5 27.78125 
Q 14.5 17.625 19.359375 12.109375 
Q 24.21875 6.59375 33.109375 6.59375 
Q 41.109375 6.59375 47.375 10.5625 
Q 53.65625 14.546875 58.109375 22.40625 
Q 61.078125 27.6875 62.640625 33.46875 
Q 64.203125 39.265625 64.203125 45.015625 
Q 64.203125 55.125 59.3125 60.671875 
Q 54.4375 66.21875 45.609375 66.21875 
z
" id="DejaVuSans-Oblique-81"/>
      <path d="M 11.71875 12.40625 
L 22.015625 12.40625 
L 22.015625 0 
L 11.71875 0 
z
M 11.71875 51.703125 
L 22.015625 51.703125 
L 22.015625 39.3125 
L 11.71875 39.3125 
z
" id="DejaVuSans-58"/>
      <path d="M 20.609375 0 
L 7.8125 72.90625 
L 17.484375 72.90625 
L 28.078125 10.203125 
L 63.484375 72.90625 
L 74.21875 72.90625 
L 32.078125 0 
z
" id="DejaVuSans-Oblique-86"/>
      <path d="M 10.59375 45.40625 
L 73.1875 45.40625 
L 73.1875 37.203125 
L 10.59375 37.203125 
z
M 10.59375 25.484375 
L 73.1875 25.484375 
L 73.1875 17.1875 
L 10.59375 17.1875 
z
" id="DejaVuSans-61"/>
     </defs>
     <g transform="translate(309.28 195.9165)scale(0.16 -0.16)">
      <use transform="translate(0 0.78125)" xlink:href="#DejaVuSans-Oblique-81"/>
      <use transform="translate(98.193359 0.78125)" xlink:href="#DejaVuSans-58"/>
      <use transform="translate(151.367188 0.78125)" xlink:href="#DejaVuSans-Oblique-86"/>
      <use transform="translate(239.257812 0.78125)" xlink:href="#DejaVuSans-61"/>
      <use transform="translate(342.529297 0.78125)" xlink:href="#DejaVuSans-49"/>
     </g>
    </g>
    <g id="line2d_20">
     <path d="M 264.48 213.8015 
L 296.48 213.8015 
" style="fill:none;stroke:#ff7f0e;stroke-dasharray:2,3.3;stroke-dashoffset:0;stroke-width:2;"/>
    </g>
    <g id="line2d_21"/>
    <g id="text_16">
     <!-- $Q:V = 10$ -->
     <g transform="translate(309.28 219.4015)scale(0.16 -0.16)">
      <use transform="translate(0 0.78125)" xlink:href="#DejaVuSans-Oblique-81"/>
      <use transform="translate(98.193359 0.78125)" xlink:href="#DejaVuSans-58"/>
      <use transform="translate(151.367188 0.78125)" xlink:href="#DejaVuSans-Oblique-86"/>
      <use transform="translate(239.257812 0.78125)" xlink:href="#DejaVuSans-61"/>
      <use transform="translate(342.529297 0.78125)" xlink:href="#DejaVuSans-49"/>
      <use transform="translate(406.152344 0.78125)" xlink:href="#DejaVuSans-48"/>
     </g>
    </g>
    <g id="line2d_22">
     <path d="M 264.48 237.2865 
L 296.48 237.2865 
" style="fill:none;stroke:#2ca02c;stroke-dasharray:7.4,3.2;stroke-dashoffset:0;stroke-width:2;"/>
    </g>
    <g id="line2d_23"/>
    <g id="text_17">
     <!-- $Q:V = 9$ -->
     <defs>
      <path d="M 10.984375 1.515625 
L 10.984375 10.5 
Q 14.703125 8.734375 18.5 7.8125 
Q 22.3125 6.890625 25.984375 6.890625 
Q 35.75 6.890625 40.890625 13.453125 
Q 46.046875 20.015625 46.78125 33.40625 
Q 43.953125 29.203125 39.59375 26.953125 
Q 35.25 24.703125 29.984375 24.703125 
Q 19.046875 24.703125 12.671875 31.3125 
Q 6.296875 37.9375 6.296875 49.421875 
Q 6.296875 60.640625 12.9375 67.421875 
Q 19.578125 74.21875 30.609375 74.21875 
Q 43.265625 74.21875 49.921875 64.515625 
Q 56.59375 54.828125 56.59375 36.375 
Q 56.59375 19.140625 48.40625 8.859375 
Q 40.234375 -1.421875 26.421875 -1.421875 
Q 22.703125 -1.421875 18.890625 -0.6875 
Q 15.09375 0.046875 10.984375 1.515625 
z
M 30.609375 32.421875 
Q 37.25 32.421875 41.125 36.953125 
Q 45.015625 41.5 45.015625 49.421875 
Q 45.015625 57.28125 41.125 61.84375 
Q 37.25 66.40625 30.609375 66.40625 
Q 23.96875 66.40625 20.09375 61.84375 
Q 16.21875 57.28125 16.21875 49.421875 
Q 16.21875 41.5 20.09375 36.953125 
Q 23.96875 32.421875 30.609375 32.421875 
z
" id="DejaVuSans-57"/>
     </defs>
     <g transform="translate(309.28 242.8865)scale(0.16 -0.16)">
      <use transform="translate(0 0.78125)" xlink:href="#DejaVuSans-Oblique-81"/>
      <use transform="translate(98.193359 0.78125)" xlink:href="#DejaVuSans-58"/>
      <use transform="translate(151.367188 0.78125)" xlink:href="#DejaVuSans-Oblique-86"/>
      <use transform="translate(239.257812 0.78125)" xlink:href="#DejaVuSans-61"/>
      <use transform="translate(342.529297 0.78125)" xlink:href="#DejaVuSans-57"/>
     </g>
    </g>
    <g id="line2d_24">
     <path d="M 264.48 260.7715 
L 296.48 260.7715 
" style="fill:none;stroke:#d62728;stroke-linecap:square;stroke-width:3.5;"/>
    </g>
    <g id="line2d_25"/>
    <g id="text_18">
     <!-- $Q:V = 5$ -->
     <g transform="translate(309.28 266.3715)scale(0.16 -0.16)">
      <use transform="translate(0 0.78125)" xlink:href="#DejaVuSans-Oblique-81"/>
      <use transform="translate(98.193359 0.78125)" xlink:href="#DejaVuSans-58"/>
      <use transform="translate(151.367188 0.78125)" xlink:href="#DejaVuSans-Oblique-86"/>
      <use transform="translate(239.257812 0.78125)" xlink:href="#DejaVuSans-61"/>
      <use transform="translate(342.529297 0.78125)" xlink:href="#DejaVuSans-53"/>
     </g>
    </g>
    <g id="line2d_26">
     <path d="M 264.48 284.2565 
L 296.48 284.2565 
" style="fill:none;stroke:#9467bd;stroke-dasharray:3.5,5.775;stroke-dashoffset:0;stroke-width:3.5;"/>
    </g>
    <g id="line2d_27"/>
    <g id="text_19">
     <!-- Actual $\alpha(G)$ -->
     <defs>
      <path d="M 8.5 21.578125 
L 8.5 54.6875 
L 17.484375 54.6875 
L 17.484375 21.921875 
Q 17.484375 14.15625 20.5 10.265625 
Q 23.53125 6.390625 29.59375 6.390625 
Q 36.859375 6.390625 41.078125 11.03125 
Q 45.3125 15.671875 45.3125 23.6875 
L 45.3125 54.6875 
L 54.296875 54.6875 
L 54.296875 0 
L 45.3125 0 
L 45.3125 8.40625 
Q 42.046875 3.421875 37.71875 1 
Q 33.40625 -1.421875 27.6875 -1.421875 
Q 18.265625 -1.421875 13.375 4.4375 
Q 8.5 10.296875 8.5 21.578125 
z
M 31.109375 56 
z
" id="DejaVuSans-117"/>
      <path d="M 9.421875 75.984375 
L 18.40625 75.984375 
L 18.40625 0 
L 9.421875 0 
z
" id="DejaVuSans-108"/>
     </defs>
     <g transform="translate(309.28 289.8565)scale(0.16 -0.16)">
      <use transform="translate(0 0.015625)" xlink:href="#DejaVuSans-65"/>
      <use transform="translate(68.408203 0.015625)" xlink:href="#DejaVuSans-99"/>
      <use transform="translate(123.388672 0.015625)" xlink:href="#DejaVuSans-116"/>
      <use transform="translate(162.597656 0.015625)" xlink:href="#DejaVuSans-117"/>
      <use transform="translate(225.976562 0.015625)" xlink:href="#DejaVuSans-97"/>
      <use transform="translate(287.255859 0.015625)" xlink:href="#DejaVuSans-108"/>
      <use transform="translate(315.039062 0.015625)" xlink:href="#DejaVuSans-32"/>
      <use transform="translate(346.826172 0.015625)" xlink:href="#DejaVuSans-Oblique-945"/>
      <use transform="translate(412.744141 0.015625)" xlink:href="#DejaVuSans-40"/>
      <use transform="translate(451.757812 0.015625)" xlink:href="#DejaVuSans-Oblique-71"/>
      <use transform="translate(529.248047 0.015625)" xlink:href="#DejaVuSans-41"/>
     </g>
    </g>
   </g>
  </g>
 </g>
 <defs>
  <clipPath id="p0ec047b2df">
   <rect height="266.112" width="357.12" x="57.6" y="41.472"/>
  </clipPath>
 </defs>
</svg>
