<?xml version="1.0" encoding="utf-8" standalone="no"?>
<!DOCTYPE svg PUBLIC "-//W3C//DTD SVG 1.1//EN"
  "http://www.w3.org/Graphics/SVG/1.1/DTD/svg11.dtd">
<!-- Created with matplotlib (https://matplotlib.org/) -->
<svg height="345.6pt" version="1.1" viewBox="0 0 460.8 345.6" width="460.8pt" xmlns="http://www.w3.org/2000/svg" xmlns:xlink="http://www.w3.org/1999/xlink">
 <defs>
  <style type="text/css">
*{stroke-linecap:butt;stroke-linejoin:round;}
  </style>
 </defs>
 <g id="figure_1">
  <g id="patch_1">
   <path d="M 0 345.6 
L 460.8 345.6 
L 460.8 0 
L 0 0 
z
" style="fill:#ffffff;"/>
  </g>
  <g id="axes_1">
   <g id="patch_2">
    <path d="M 57.6 307.584 
L 414.72 307.584 
L 414.72 41.472 
L 57.6 41.472 
z
" style="fill:#ffffff;"/>
   </g>
   <g id="LineCollection_1">
    <path clip-path="url(#p6cfb130b99)" d="M 128.770467 56.449887 
L 278.797613 125.379356 
" style="fill:none;stroke:#000000;"/>
    <path clip-path="url(#p6cfb130b99)" d="M 354.108529 224.526832 
L 278.797613 125.379356 
" style="fill:none;stroke:#000000;"/>
    <path clip-path="url(#p6cfb130b99)" d="M 128.770467 56.449887 
L 294.765273 78.627212 
" style="fill:none;stroke:#000000;"/>
    <path clip-path="url(#p6cfb130b99)" d="M 278.797613 125.379356 
L 294.765273 78.627212 
" style="fill:none;stroke:#000000;"/>
    <path clip-path="url(#p6cfb130b99)" d="M 354.108529 224.526832 
L 392.402462 179.758409 
" style="fill:none;stroke:#000000;"/>
    <path clip-path="url(#p6cfb130b99)" d="M 278.797613 125.379356 
L 392.402462 179.758409 
" style="fill:none;stroke:#000000;"/>
    <path clip-path="url(#p6cfb130b99)" d="M 354.108529 224.526832 
L 307.423541 292.606113 
" style="fill:none;stroke:#000000;"/>
    <path clip-path="url(#p6cfb130b99)" d="M 354.108529 224.526832 
L 139.018854 219.388238 
" style="fill:none;stroke:#000000;"/>
    <path clip-path="url(#p6cfb130b99)" d="M 392.402462 179.758409 
L 139.018854 219.388238 
" style="fill:none;stroke:#000000;"/>
    <path clip-path="url(#p6cfb130b99)" d="M 354.108529 224.526832 
L 237.266582 195.047242 
" style="fill:none;stroke:#000000;"/>
    <path clip-path="url(#p6cfb130b99)" d="M 294.765273 78.627212 
L 237.266582 195.047242 
" style="fill:none;stroke:#000000;"/>
    <path clip-path="url(#p6cfb130b99)" d="M 392.402462 179.758409 
L 237.266582 195.047242 
" style="fill:none;stroke:#000000;"/>
    <path clip-path="url(#p6cfb130b99)" d="M 307.423541 292.606113 
L 237.266582 195.047242 
" style="fill:none;stroke:#000000;"/>
    <path clip-path="url(#p6cfb130b99)" d="M 307.423541 292.606113 
L 123.921078 286.484689 
" style="fill:none;stroke:#000000;"/>
    <path clip-path="url(#p6cfb130b99)" d="M 139.018854 219.388238 
L 123.921078 286.484689 
" style="fill:none;stroke:#000000;"/>
    <path clip-path="url(#p6cfb130b99)" d="M 237.266582 195.047242 
L 123.921078 286.484689 
" style="fill:none;stroke:#000000;"/>
    <path clip-path="url(#p6cfb130b99)" d="M 128.770467 56.449887 
L 79.917538 136.154768 
" style="fill:none;stroke:#000000;"/>
    <path clip-path="url(#p6cfb130b99)" d="M 278.797613 125.379356 
L 79.917538 136.154768 
" style="fill:none;stroke:#000000;"/>
    <path clip-path="url(#p6cfb130b99)" d="M 139.018854 219.388238 
L 79.917538 136.154768 
" style="fill:none;stroke:#000000;"/>
    <path clip-path="url(#p6cfb130b99)" d="M 237.266582 195.047242 
L 79.917538 136.154768 
" style="fill:none;stroke:#000000;"/>
   </g>
   <g id="matplotlib.axis_1">
    <g id="xtick_1"/>
    <g id="xtick_2"/>
    <g id="xtick_3"/>
    <g id="xtick_4"/>
    <g id="xtick_5"/>
   </g>
   <g id="matplotlib.axis_2">
    <g id="ytick_1"/>
    <g id="ytick_2"/>
    <g id="ytick_3"/>
    <g id="ytick_4"/>
    <g id="ytick_5"/>
    <g id="ytick_6"/>
    <g id="ytick_7"/>
    <g id="ytick_8"/>
    <g id="ytick_9"/>
   </g>
   <g id="PathCollection_1">
    <defs>
     <path d="M 0 8.660254 
C 2.296726 8.660254 4.499694 7.747755 6.123724 6.123724 
C 7.747755 4.499694 8.660254 2.296726 8.660254 0 
C 8.660254 -2.296726 7.747755 -4.499694 6.123724 -6.123724 
C 4.499694 -7.747755 2.296726 -8.660254 0 -8.660254 
C -2.296726 -8.660254 -4.499694 -7.747755 -6.123724 -6.123724 
C -7.747755 -4.499694 -8.660254 -2.296726 -8.660254 0 
C -8.660254 2.296726 -7.747755 4.499694 -6.123724 6.123724 
C -4.499694 7.747755 -2.296726 8.660254 0 8.660254 
z
" id="C0_0_e90e51c696"/>
    </defs>
    <g clip-path="url(#p6cfb130b99)">
     <use style="fill:#000080;stroke:#000080;" x="128.770467" xlink:href="#C0_0_e90e51c696" y="56.449887"/>
    </g>
    <g clip-path="url(#p6cfb130b99)">
     <use style="fill:#800000;stroke:#800000;" x="278.797613" xlink:href="#C0_0_e90e51c696" y="125.379356"/>
    </g>
    <g clip-path="url(#p6cfb130b99)">
     <use style="fill:#000080;stroke:#000080;" x="354.108529" xlink:href="#C0_0_e90e51c696" y="224.526832"/>
    </g>
    <g clip-path="url(#p6cfb130b99)">
     <use style="fill:#800000;stroke:#800000;" x="294.765273" xlink:href="#C0_0_e90e51c696" y="78.627212"/>
    </g>
    <g clip-path="url(#p6cfb130b99)">
     <use style="fill:#000080;stroke:#000080;" x="392.402462" xlink:href="#C0_0_e90e51c696" y="179.758409"/>
    </g>
    <g clip-path="url(#p6cfb130b99)">
     <use style="fill:#000080;stroke:#000080;" x="307.423541" xlink:href="#C0_0_e90e51c696" y="292.606113"/>
    </g>
    <g clip-path="url(#p6cfb130b99)">
     <use style="fill:#000080;stroke:#000080;" x="139.018854" xlink:href="#C0_0_e90e51c696" y="219.388238"/>
    </g>
    <g clip-path="url(#p6cfb130b99)">
     <use style="fill:#000080;stroke:#000080;" x="237.266582" xlink:href="#C0_0_e90e51c696" y="195.047242"/>
    </g>
    <g clip-path="url(#p6cfb130b99)">
     <use style="fill:#800000;stroke:#800000;" x="123.921078" xlink:href="#C0_0_e90e51c696" y="286.484689"/>
    </g>
    <g clip-path="url(#p6cfb130b99)">
     <use style="fill:#800000;stroke:#800000;" x="79.917538" xlink:href="#C0_0_e90e51c696" y="136.154768"/>
    </g>
   </g>
   <g id="patch_3">
    <path d="M 57.6 307.584 
L 57.6 41.472 
" style="fill:none;stroke:#000000;stroke-linecap:square;stroke-linejoin:miter;stroke-width:0.8;"/>
   </g>
   <g id="patch_4">
    <path d="M 414.72 307.584 
L 414.72 41.472 
" style="fill:none;stroke:#000000;stroke-linecap:square;stroke-linejoin:miter;stroke-width:0.8;"/>
   </g>
   <g id="patch_5">
    <path d="M 57.6 307.584 
L 414.72 307.584 
" style="fill:none;stroke:#000000;stroke-linecap:square;stroke-linejoin:miter;stroke-width:0.8;"/>
   </g>
   <g id="patch_6">
    <path d="M 57.6 41.472 
L 414.72 41.472 
" style="fill:none;stroke:#000000;stroke-linecap:square;stroke-linejoin:miter;stroke-width:0.8;"/>
   </g>
  </g>
 </g>
 <defs>
  <clipPath id="p6cfb130b99">
   <rect height="266.112" width="357.12" x="57.6" y="41.472"/>
  </clipPath>
 </defs>
</svg>
