<?xml version="1.0" encoding="utf-8" standalone="no"?>
<!DOCTYPE svg PUBLIC "-//W3C//DTD SVG 1.1//EN"
  "http://www.w3.org/Graphics/SVG/1.1/DTD/svg11.dtd">
<!-- Created with matplotlib (https://matplotlib.org/) -->
<svg height="345.6pt" version="1.1" viewBox="0 0 460.8 345.6" width="460.8pt" xmlns="http://www.w3.org/2000/svg" xmlns:xlink="http://www.w3.org/1999/xlink">
 <defs>
  <style type="text/css">
*{stroke-linecap:butt;stroke-linejoin:round;}
  </style>
 </defs>
 <g id="figure_1">
  <g id="patch_1">
   <path d="M 0 345.6 
L 460.8 345.6 
L 460.8 0 
L 0 0 
z
" style="fill:#ffffff;"/>
  </g>
  <g id="axes_1">
   <g id="patch_2">
    <path d="M 57.6 307.584 
L 414.72 307.584 
L 414.72 41.472 
L 57.6 41.472 
z
" style="fill:#ffffff;"/>
   </g>
   <g id="LineCollection_1">
    <path clip-path="url(#p1359799a33)" d="M 349.230106 86.267929 
L 268.837513 57.178347 
" style="fill:none;stroke:#000000;"/>
    <path clip-path="url(#p1359799a33)" d="M 349.230106 86.267929 
L 385.634898 152.4553 
" style="fill:none;stroke:#000000;"/>
    <path clip-path="url(#p1359799a33)" d="M 268.837513 57.178347 
L 385.634898 152.4553 
" style="fill:none;stroke:#000000;"/>
    <path clip-path="url(#p1359799a33)" d="M 349.230106 86.267929 
L 228.93388 152.564378 
" style="fill:none;stroke:#000000;"/>
    <path clip-path="url(#p1359799a33)" d="M 280.981754 291.877653 
L 228.93388 152.564378 
" style="fill:none;stroke:#000000;"/>
    <path clip-path="url(#p1359799a33)" d="M 268.837513 57.178347 
L 228.93388 152.564378 
" style="fill:none;stroke:#000000;"/>
    <path clip-path="url(#p1359799a33)" d="M 385.634898 152.4553 
L 228.93388 152.564378 
" style="fill:none;stroke:#000000;"/>
    <path clip-path="url(#p1359799a33)" d="M 268.837513 57.178347 
L 144.718501 112.924623 
" style="fill:none;stroke:#000000;"/>
    <path clip-path="url(#p1359799a33)" d="M 349.230106 86.267929 
L 313.125889 175.565308 
" style="fill:none;stroke:#000000;"/>
    <path clip-path="url(#p1359799a33)" d="M 280.981754 291.877653 
L 313.125889 175.565308 
" style="fill:none;stroke:#000000;"/>
    <path clip-path="url(#p1359799a33)" d="M 268.837513 57.178347 
L 313.125889 175.565308 
" style="fill:none;stroke:#000000;"/>
    <path clip-path="url(#p1359799a33)" d="M 385.634898 152.4553 
L 313.125889 175.565308 
" style="fill:none;stroke:#000000;"/>
    <path clip-path="url(#p1359799a33)" d="M 144.718501 112.924623 
L 313.125889 175.565308 
" style="fill:none;stroke:#000000;"/>
    <path clip-path="url(#p1359799a33)" d="M 349.230106 86.267929 
L 247.517114 209.28628 
" style="fill:none;stroke:#000000;"/>
    <path clip-path="url(#p1359799a33)" d="M 280.981754 291.877653 
L 247.517114 209.28628 
" style="fill:none;stroke:#000000;"/>
    <path clip-path="url(#p1359799a33)" d="M 385.634898 152.4553 
L 247.517114 209.28628 
" style="fill:none;stroke:#000000;"/>
    <path clip-path="url(#p1359799a33)" d="M 228.93388 152.564378 
L 247.517114 209.28628 
" style="fill:none;stroke:#000000;"/>
    <path clip-path="url(#p1359799a33)" d="M 144.718501 112.924623 
L 247.517114 209.28628 
" style="fill:none;stroke:#000000;"/>
    <path clip-path="url(#p1359799a33)" d="M 313.125889 175.565308 
L 247.517114 209.28628 
" style="fill:none;stroke:#000000;"/>
    <path clip-path="url(#p1359799a33)" d="M 228.93388 152.564378 
L 77.184138 194.160251 
" style="fill:none;stroke:#000000;"/>
    <path clip-path="url(#p1359799a33)" d="M 144.718501 112.924623 
L 77.184138 194.160251 
" style="fill:none;stroke:#000000;"/>
    <path clip-path="url(#p1359799a33)" d="M 247.517114 209.28628 
L 77.184138 194.160251 
" style="fill:none;stroke:#000000;"/>
    <path clip-path="url(#p1359799a33)" d="M 280.981754 291.877653 
L 395.135862 267.773708 
" style="fill:none;stroke:#000000;"/>
    <path clip-path="url(#p1359799a33)" d="M 385.634898 152.4553 
L 395.135862 267.773708 
" style="fill:none;stroke:#000000;"/>
    <path clip-path="url(#p1359799a33)" d="M 313.125889 175.565308 
L 395.135862 267.773708 
" style="fill:none;stroke:#000000;"/>
    <path clip-path="url(#p1359799a33)" d="M 247.517114 209.28628 
L 395.135862 267.773708 
" style="fill:none;stroke:#000000;"/>
   </g>
   <g id="matplotlib.axis_1">
    <g id="xtick_1"/>
    <g id="xtick_2"/>
    <g id="xtick_3"/>
    <g id="xtick_4"/>
    <g id="xtick_5"/>
    <g id="xtick_6"/>
    <g id="xtick_7"/>
    <g id="xtick_8"/>
   </g>
   <g id="matplotlib.axis_2">
    <g id="ytick_1"/>
    <g id="ytick_2"/>
    <g id="ytick_3"/>
    <g id="ytick_4"/>
    <g id="ytick_5"/>
    <g id="ytick_6"/>
    <g id="ytick_7"/>
    <g id="ytick_8"/>
    <g id="ytick_9"/>
   </g>
   <g id="PathCollection_1">
    <defs>
     <path d="M 0 8.660254 
C 2.296726 8.660254 4.499694 7.747755 6.123724 6.123724 
C 7.747755 4.499694 8.660254 2.296726 8.660254 0 
C 8.660254 -2.296726 7.747755 -4.499694 6.123724 -6.123724 
C 4.499694 -7.747755 2.296726 -8.660254 0 -8.660254 
C -2.296726 -8.660254 -4.499694 -7.747755 -6.123724 -6.123724 
C -7.747755 -4.499694 -8.660254 -2.296726 -8.660254 0 
C -8.660254 2.296726 -7.747755 4.499694 -6.123724 6.123724 
C -4.499694 7.747755 -2.296726 8.660254 0 8.660254 
z
" id="C0_0_31fe33aafb"/>
    </defs>
    <g clip-path="url(#p1359799a33)">
     <use style="fill:#800000;stroke:#800000;" x="349.230106" xlink:href="#C0_0_31fe33aafb" y="86.267929"/>
    </g>
    <g clip-path="url(#p1359799a33)">
     <use style="fill:#800000;stroke:#800000;" x="268.837513" xlink:href="#C0_0_31fe33aafb" y="57.178347"/>
    </g>
    <g clip-path="url(#p1359799a33)">
     <use style="fill:#000080;stroke:#000080;" x="385.634898" xlink:href="#C0_0_31fe33aafb" y="152.4553"/>
    </g>
    <g clip-path="url(#p1359799a33)">
     <use style="fill:#000080;stroke:#000080;" x="228.93388" xlink:href="#C0_0_31fe33aafb" y="152.564378"/>
    </g>
    <g clip-path="url(#p1359799a33)">
     <use style="fill:#000080;stroke:#000080;" x="280.981754" xlink:href="#C0_0_31fe33aafb" y="291.877653"/>
    </g>
    <g clip-path="url(#p1359799a33)">
     <use style="fill:#800000;stroke:#800000;" x="144.718501" xlink:href="#C0_0_31fe33aafb" y="112.924623"/>
    </g>
    <g clip-path="url(#p1359799a33)">
     <use style="fill:#000080;stroke:#000080;" x="313.125889" xlink:href="#C0_0_31fe33aafb" y="175.565308"/>
    </g>
    <g clip-path="url(#p1359799a33)">
     <use style="fill:#000080;stroke:#000080;" x="247.517114" xlink:href="#C0_0_31fe33aafb" y="209.28628"/>
    </g>
    <g clip-path="url(#p1359799a33)">
     <use style="fill:#000080;stroke:#000080;" x="77.184138" xlink:href="#C0_0_31fe33aafb" y="194.160251"/>
    </g>
    <g clip-path="url(#p1359799a33)">
     <use style="fill:#000080;stroke:#000080;" x="395.135862" xlink:href="#C0_0_31fe33aafb" y="267.773708"/>
    </g>
   </g>
   <g id="patch_3">
    <path d="M 57.6 307.584 
L 57.6 41.472 
" style="fill:none;stroke:#000000;stroke-linecap:square;stroke-linejoin:miter;stroke-width:0.8;"/>
   </g>
   <g id="patch_4">
    <path d="M 414.72 307.584 
L 414.72 41.472 
" style="fill:none;stroke:#000000;stroke-linecap:square;stroke-linejoin:miter;stroke-width:0.8;"/>
   </g>
   <g id="patch_5">
    <path d="M 57.6 307.584 
L 414.72 307.584 
" style="fill:none;stroke:#000000;stroke-linecap:square;stroke-linejoin:miter;stroke-width:0.8;"/>
   </g>
   <g id="patch_6">
    <path d="M 57.6 41.472 
L 414.72 41.472 
" style="fill:none;stroke:#000000;stroke-linecap:square;stroke-linejoin:miter;stroke-width:0.8;"/>
   </g>
  </g>
 </g>
 <defs>
  <clipPath id="p1359799a33">
   <rect height="266.112" width="357.12" x="57.6" y="41.472"/>
  </clipPath>
 </defs>
</svg>
