<?xml version="1.0" encoding="utf-8" standalone="no"?>
<!DOCTYPE svg PUBLIC "-//W3C//DTD SVG 1.1//EN"
  "http://www.w3.org/Graphics/SVG/1.1/DTD/svg11.dtd">
<!-- Created with matplotlib (https://matplotlib.org/) -->
<svg height="345.6pt" version="1.1" viewBox="0 0 460.8 345.6" width="460.8pt" xmlns="http://www.w3.org/2000/svg" xmlns:xlink="http://www.w3.org/1999/xlink">
 <defs>
  <style type="text/css">
*{stroke-linecap:butt;stroke-linejoin:round;}
  </style>
 </defs>
 <g id="figure_1">
  <g id="patch_1">
   <path d="M 0 345.6 
L 460.8 345.6 
L 460.8 0 
L 0 0 
z
" style="fill:#ffffff;"/>
  </g>
  <g id="axes_1">
   <g id="patch_2">
    <path d="M 57.6 307.584 
L 414.72 307.584 
L 414.72 41.472 
L 57.6 41.472 
z
" style="fill:#ffffff;"/>
   </g>
   <g id="LineCollection_1">
    <path clip-path="url(#p4591c21c14)" d="M 341.388864 253.820025 
L 197.015013 209.369851 
" style="fill:none;stroke:#000000;"/>
    <path clip-path="url(#p4591c21c14)" d="M 341.388864 253.820025 
L 182.922837 292.607633 
" style="fill:none;stroke:#000000;"/>
    <path clip-path="url(#p4591c21c14)" d="M 197.015013 209.369851 
L 182.922837 292.607633 
" style="fill:none;stroke:#000000;"/>
    <path clip-path="url(#p4591c21c14)" d="M 341.388864 253.820025 
L 395.319537 155.925968 
" style="fill:none;stroke:#000000;"/>
    <path clip-path="url(#p4591c21c14)" d="M 197.015013 209.369851 
L 395.319537 155.925968 
" style="fill:none;stroke:#000000;"/>
    <path clip-path="url(#p4591c21c14)" d="M 182.922837 292.607633 
L 395.319537 155.925968 
" style="fill:none;stroke:#000000;"/>
    <path clip-path="url(#p4591c21c14)" d="M 341.388864 253.820025 
L 77.000463 208.857006 
" style="fill:none;stroke:#000000;"/>
    <path clip-path="url(#p4591c21c14)" d="M 197.015013 209.369851 
L 77.000463 208.857006 
" style="fill:none;stroke:#000000;"/>
    <path clip-path="url(#p4591c21c14)" d="M 182.922837 292.607633 
L 77.000463 208.857006 
" style="fill:none;stroke:#000000;"/>
    <path clip-path="url(#p4591c21c14)" d="M 197.015013 209.369851 
L 138.494049 77.102242 
" style="fill:none;stroke:#000000;"/>
    <path clip-path="url(#p4591c21c14)" d="M 182.922837 292.607633 
L 138.494049 77.102242 
" style="fill:none;stroke:#000000;"/>
    <path clip-path="url(#p4591c21c14)" d="M 395.319537 155.925968 
L 138.494049 77.102242 
" style="fill:none;stroke:#000000;"/>
    <path clip-path="url(#p4591c21c14)" d="M 341.388864 253.820025 
L 310.171633 103.507585 
" style="fill:none;stroke:#000000;"/>
    <path clip-path="url(#p4591c21c14)" d="M 197.015013 209.369851 
L 310.171633 103.507585 
" style="fill:none;stroke:#000000;"/>
    <path clip-path="url(#p4591c21c14)" d="M 395.319537 155.925968 
L 310.171633 103.507585 
" style="fill:none;stroke:#000000;"/>
    <path clip-path="url(#p4591c21c14)" d="M 77.000463 208.857006 
L 310.171633 103.507585 
" style="fill:none;stroke:#000000;"/>
    <path clip-path="url(#p4591c21c14)" d="M 138.494049 77.102242 
L 310.171633 103.507585 
" style="fill:none;stroke:#000000;"/>
    <path clip-path="url(#p4591c21c14)" d="M 341.388864 253.820025 
L 263.971627 56.448367 
" style="fill:none;stroke:#000000;"/>
    <path clip-path="url(#p4591c21c14)" d="M 197.015013 209.369851 
L 263.971627 56.448367 
" style="fill:none;stroke:#000000;"/>
    <path clip-path="url(#p4591c21c14)" d="M 395.319537 155.925968 
L 263.971627 56.448367 
" style="fill:none;stroke:#000000;"/>
    <path clip-path="url(#p4591c21c14)" d="M 77.000463 208.857006 
L 263.971627 56.448367 
" style="fill:none;stroke:#000000;"/>
    <path clip-path="url(#p4591c21c14)" d="M 138.494049 77.102242 
L 263.971627 56.448367 
" style="fill:none;stroke:#000000;"/>
    <path clip-path="url(#p4591c21c14)" d="M 310.171633 103.507585 
L 263.971627 56.448367 
" style="fill:none;stroke:#000000;"/>
    <path clip-path="url(#p4591c21c14)" d="M 341.388864 253.820025 
L 156.399057 146.085366 
" style="fill:none;stroke:#000000;"/>
    <path clip-path="url(#p4591c21c14)" d="M 197.015013 209.369851 
L 156.399057 146.085366 
" style="fill:none;stroke:#000000;"/>
    <path clip-path="url(#p4591c21c14)" d="M 182.922837 292.607633 
L 156.399057 146.085366 
" style="fill:none;stroke:#000000;"/>
    <path clip-path="url(#p4591c21c14)" d="M 395.319537 155.925968 
L 156.399057 146.085366 
" style="fill:none;stroke:#000000;"/>
    <path clip-path="url(#p4591c21c14)" d="M 77.000463 208.857006 
L 156.399057 146.085366 
" style="fill:none;stroke:#000000;"/>
    <path clip-path="url(#p4591c21c14)" d="M 138.494049 77.102242 
L 156.399057 146.085366 
" style="fill:none;stroke:#000000;"/>
    <path clip-path="url(#p4591c21c14)" d="M 310.171633 103.507585 
L 156.399057 146.085366 
" style="fill:none;stroke:#000000;"/>
    <path clip-path="url(#p4591c21c14)" d="M 263.971627 56.448367 
L 156.399057 146.085366 
" style="fill:none;stroke:#000000;"/>
    <path clip-path="url(#p4591c21c14)" d="M 341.388864 253.820025 
L 288.776503 193.077152 
" style="fill:none;stroke:#000000;"/>
    <path clip-path="url(#p4591c21c14)" d="M 197.015013 209.369851 
L 288.776503 193.077152 
" style="fill:none;stroke:#000000;"/>
    <path clip-path="url(#p4591c21c14)" d="M 182.922837 292.607633 
L 288.776503 193.077152 
" style="fill:none;stroke:#000000;"/>
    <path clip-path="url(#p4591c21c14)" d="M 395.319537 155.925968 
L 288.776503 193.077152 
" style="fill:none;stroke:#000000;"/>
    <path clip-path="url(#p4591c21c14)" d="M 77.000463 208.857006 
L 288.776503 193.077152 
" style="fill:none;stroke:#000000;"/>
    <path clip-path="url(#p4591c21c14)" d="M 138.494049 77.102242 
L 288.776503 193.077152 
" style="fill:none;stroke:#000000;"/>
    <path clip-path="url(#p4591c21c14)" d="M 263.971627 56.448367 
L 288.776503 193.077152 
" style="fill:none;stroke:#000000;"/>
    <path clip-path="url(#p4591c21c14)" d="M 156.399057 146.085366 
L 288.776503 193.077152 
" style="fill:none;stroke:#000000;"/>
   </g>
   <g id="matplotlib.axis_1">
    <g id="xtick_1"/>
    <g id="xtick_2"/>
    <g id="xtick_3"/>
    <g id="xtick_4"/>
    <g id="xtick_5"/>
    <g id="xtick_6"/>
    <g id="xtick_7"/>
   </g>
   <g id="matplotlib.axis_2">
    <g id="ytick_1"/>
    <g id="ytick_2"/>
    <g id="ytick_3"/>
    <g id="ytick_4"/>
    <g id="ytick_5"/>
    <g id="ytick_6"/>
    <g id="ytick_7"/>
    <g id="ytick_8"/>
    <g id="ytick_9"/>
   </g>
   <g id="PathCollection_1">
    <defs>
     <path d="M 0 8.660254 
C 2.296726 8.660254 4.499694 7.747755 6.123724 6.123724 
C 7.747755 4.499694 8.660254 2.296726 8.660254 0 
C 8.660254 -2.296726 7.747755 -4.499694 6.123724 -6.123724 
C 4.499694 -7.747755 2.296726 -8.660254 0 -8.660254 
C -2.296726 -8.660254 -4.499694 -7.747755 -6.123724 -6.123724 
C -7.747755 -4.499694 -8.660254 -2.296726 -8.660254 0 
C -8.660254 2.296726 -7.747755 4.499694 -6.123724 6.123724 
C -4.499694 7.747755 -2.296726 8.660254 0 8.660254 
z
" id="C0_0_70aa773e4c"/>
    </defs>
    <g clip-path="url(#p4591c21c14)">
     <use style="fill:#800000;stroke:#800000;" x="341.388864" xlink:href="#C0_0_70aa773e4c" y="253.820025"/>
    </g>
    <g clip-path="url(#p4591c21c14)">
     <use style="fill:#000080;stroke:#000080;" x="197.015013" xlink:href="#C0_0_70aa773e4c" y="209.369851"/>
    </g>
    <g clip-path="url(#p4591c21c14)">
     <use style="fill:#000080;stroke:#000080;" x="182.922837" xlink:href="#C0_0_70aa773e4c" y="292.607633"/>
    </g>
    <g clip-path="url(#p4591c21c14)">
     <use style="fill:#000080;stroke:#000080;" x="395.319537" xlink:href="#C0_0_70aa773e4c" y="155.925968"/>
    </g>
    <g clip-path="url(#p4591c21c14)">
     <use style="fill:#000080;stroke:#000080;" x="77.000463" xlink:href="#C0_0_70aa773e4c" y="208.857006"/>
    </g>
    <g clip-path="url(#p4591c21c14)">
     <use style="fill:#800000;stroke:#800000;" x="138.494049" xlink:href="#C0_0_70aa773e4c" y="77.102242"/>
    </g>
    <g clip-path="url(#p4591c21c14)">
     <use style="fill:#000080;stroke:#000080;" x="310.171633" xlink:href="#C0_0_70aa773e4c" y="103.507585"/>
    </g>
    <g clip-path="url(#p4591c21c14)">
     <use style="fill:#000080;stroke:#000080;" x="263.971627" xlink:href="#C0_0_70aa773e4c" y="56.448367"/>
    </g>
    <g clip-path="url(#p4591c21c14)">
     <use style="fill:#000080;stroke:#000080;" x="156.399057" xlink:href="#C0_0_70aa773e4c" y="146.085366"/>
    </g>
    <g clip-path="url(#p4591c21c14)">
     <use style="fill:#000080;stroke:#000080;" x="288.776503" xlink:href="#C0_0_70aa773e4c" y="193.077152"/>
    </g>
   </g>
   <g id="patch_3">
    <path d="M 57.6 307.584 
L 57.6 41.472 
" style="fill:none;stroke:#000000;stroke-linecap:square;stroke-linejoin:miter;stroke-width:0.8;"/>
   </g>
   <g id="patch_4">
    <path d="M 414.72 307.584 
L 414.72 41.472 
" style="fill:none;stroke:#000000;stroke-linecap:square;stroke-linejoin:miter;stroke-width:0.8;"/>
   </g>
   <g id="patch_5">
    <path d="M 57.6 307.584 
L 414.72 307.584 
" style="fill:none;stroke:#000000;stroke-linecap:square;stroke-linejoin:miter;stroke-width:0.8;"/>
   </g>
   <g id="patch_6">
    <path d="M 57.6 41.472 
L 414.72 41.472 
" style="fill:none;stroke:#000000;stroke-linecap:square;stroke-linejoin:miter;stroke-width:0.8;"/>
   </g>
  </g>
 </g>
 <defs>
  <clipPath id="p4591c21c14">
   <rect height="266.112" width="357.12" x="57.6" y="41.472"/>
  </clipPath>
 </defs>
</svg>
