<?xml version="1.0" encoding="utf-8" standalone="no"?>
<!DOCTYPE svg PUBLIC "-//W3C//DTD SVG 1.1//EN"
  "http://www.w3.org/Graphics/SVG/1.1/DTD/svg11.dtd">
<!-- Created with matplotlib (https://matplotlib.org/) -->
<svg height="345.6pt" version="1.1" viewBox="0 0 460.8 345.6" width="460.8pt" xmlns="http://www.w3.org/2000/svg" xmlns:xlink="http://www.w3.org/1999/xlink">
 <defs>
  <style type="text/css">
*{stroke-linecap:butt;stroke-linejoin:round;}
  </style>
 </defs>
 <g id="figure_1">
  <g id="patch_1">
   <path d="M 0 345.6 
L 460.8 345.6 
L 460.8 0 
L 0 0 
z
" style="fill:#ffffff;"/>
  </g>
  <g id="axes_1">
   <g id="patch_2">
    <path d="M 57.6 307.584 
L 414.72 307.584 
L 414.72 41.472 
L 57.6 41.472 
z
" style="fill:#ffffff;"/>
   </g>
   <g id="LineCollection_1">
    <path clip-path="url(#pa06b182237)" d="M 76.913752 262.80087 
L 239.492674 283.2207 
" style="fill:none;stroke:#000000;"/>
    <path clip-path="url(#pa06b182237)" d="M 269.624995 57.002323 
L 239.492674 283.2207 
" style="fill:none;stroke:#000000;"/>
    <path clip-path="url(#pa06b182237)" d="M 269.624995 57.002323 
L 395.406248 154.440107 
" style="fill:none;stroke:#000000;"/>
    <path clip-path="url(#pa06b182237)" d="M 239.492674 283.2207 
L 395.406248 154.440107 
" style="fill:none;stroke:#000000;"/>
    <path clip-path="url(#pa06b182237)" d="M 76.913752 262.80087 
L 293.894005 139.366741 
" style="fill:none;stroke:#000000;"/>
    <path clip-path="url(#pa06b182237)" d="M 269.624995 57.002323 
L 293.894005 139.366741 
" style="fill:none;stroke:#000000;"/>
    <path clip-path="url(#pa06b182237)" d="M 239.492674 283.2207 
L 293.894005 139.366741 
" style="fill:none;stroke:#000000;"/>
    <path clip-path="url(#pa06b182237)" d="M 395.406248 154.440107 
L 293.894005 139.366741 
" style="fill:none;stroke:#000000;"/>
    <path clip-path="url(#pa06b182237)" d="M 76.913752 262.80087 
L 172.30899 126.444306 
" style="fill:none;stroke:#000000;"/>
    <path clip-path="url(#pa06b182237)" d="M 269.624995 57.002323 
L 172.30899 126.444306 
" style="fill:none;stroke:#000000;"/>
    <path clip-path="url(#pa06b182237)" d="M 239.492674 283.2207 
L 172.30899 126.444306 
" style="fill:none;stroke:#000000;"/>
    <path clip-path="url(#pa06b182237)" d="M 395.406248 154.440107 
L 172.30899 126.444306 
" style="fill:none;stroke:#000000;"/>
    <path clip-path="url(#pa06b182237)" d="M 293.894005 139.366741 
L 172.30899 126.444306 
" style="fill:none;stroke:#000000;"/>
    <path clip-path="url(#pa06b182237)" d="M 76.913752 262.80087 
L 232.489954 185.250352 
" style="fill:none;stroke:#000000;"/>
    <path clip-path="url(#pa06b182237)" d="M 269.624995 57.002323 
L 232.489954 185.250352 
" style="fill:none;stroke:#000000;"/>
    <path clip-path="url(#pa06b182237)" d="M 239.492674 283.2207 
L 232.489954 185.250352 
" style="fill:none;stroke:#000000;"/>
    <path clip-path="url(#pa06b182237)" d="M 395.406248 154.440107 
L 232.489954 185.250352 
" style="fill:none;stroke:#000000;"/>
    <path clip-path="url(#pa06b182237)" d="M 293.894005 139.366741 
L 232.489954 185.250352 
" style="fill:none;stroke:#000000;"/>
    <path clip-path="url(#pa06b182237)" d="M 172.30899 126.444306 
L 232.489954 185.250352 
" style="fill:none;stroke:#000000;"/>
    <path clip-path="url(#pa06b182237)" d="M 239.492674 283.2207 
L 370.273883 292.053677 
" style="fill:none;stroke:#000000;"/>
    <path clip-path="url(#pa06b182237)" d="M 395.406248 154.440107 
L 370.273883 292.053677 
" style="fill:none;stroke:#000000;"/>
    <path clip-path="url(#pa06b182237)" d="M 293.894005 139.366741 
L 370.273883 292.053677 
" style="fill:none;stroke:#000000;"/>
    <path clip-path="url(#pa06b182237)" d="M 172.30899 126.444306 
L 370.273883 292.053677 
" style="fill:none;stroke:#000000;"/>
    <path clip-path="url(#pa06b182237)" d="M 232.489954 185.250352 
L 370.273883 292.053677 
" style="fill:none;stroke:#000000;"/>
    <path clip-path="url(#pa06b182237)" d="M 76.913752 262.80087 
L 315.767887 228.043888 
" style="fill:none;stroke:#000000;"/>
    <path clip-path="url(#pa06b182237)" d="M 269.624995 57.002323 
L 315.767887 228.043888 
" style="fill:none;stroke:#000000;"/>
    <path clip-path="url(#pa06b182237)" d="M 239.492674 283.2207 
L 315.767887 228.043888 
" style="fill:none;stroke:#000000;"/>
    <path clip-path="url(#pa06b182237)" d="M 395.406248 154.440107 
L 315.767887 228.043888 
" style="fill:none;stroke:#000000;"/>
    <path clip-path="url(#pa06b182237)" d="M 293.894005 139.366741 
L 315.767887 228.043888 
" style="fill:none;stroke:#000000;"/>
    <path clip-path="url(#pa06b182237)" d="M 172.30899 126.444306 
L 315.767887 228.043888 
" style="fill:none;stroke:#000000;"/>
    <path clip-path="url(#pa06b182237)" d="M 232.489954 185.250352 
L 315.767887 228.043888 
" style="fill:none;stroke:#000000;"/>
    <path clip-path="url(#pa06b182237)" d="M 370.273883 292.053677 
L 315.767887 228.043888 
" style="fill:none;stroke:#000000;"/>
    <path clip-path="url(#pa06b182237)" d="M 76.913752 262.80087 
L 167.564891 222.643405 
" style="fill:none;stroke:#000000;"/>
    <path clip-path="url(#pa06b182237)" d="M 269.624995 57.002323 
L 167.564891 222.643405 
" style="fill:none;stroke:#000000;"/>
    <path clip-path="url(#pa06b182237)" d="M 239.492674 283.2207 
L 167.564891 222.643405 
" style="fill:none;stroke:#000000;"/>
    <path clip-path="url(#pa06b182237)" d="M 395.406248 154.440107 
L 167.564891 222.643405 
" style="fill:none;stroke:#000000;"/>
    <path clip-path="url(#pa06b182237)" d="M 293.894005 139.366741 
L 167.564891 222.643405 
" style="fill:none;stroke:#000000;"/>
    <path clip-path="url(#pa06b182237)" d="M 232.489954 185.250352 
L 167.564891 222.643405 
" style="fill:none;stroke:#000000;"/>
    <path clip-path="url(#pa06b182237)" d="M 370.273883 292.053677 
L 167.564891 222.643405 
" style="fill:none;stroke:#000000;"/>
    <path clip-path="url(#pa06b182237)" d="M 315.767887 228.043888 
L 167.564891 222.643405 
" style="fill:none;stroke:#000000;"/>
   </g>
   <g id="matplotlib.axis_1">
    <g id="xtick_1"/>
    <g id="xtick_2"/>
    <g id="xtick_3"/>
    <g id="xtick_4"/>
    <g id="xtick_5"/>
    <g id="xtick_6"/>
    <g id="xtick_7"/>
    <g id="xtick_8"/>
   </g>
   <g id="matplotlib.axis_2">
    <g id="ytick_1"/>
    <g id="ytick_2"/>
    <g id="ytick_3"/>
    <g id="ytick_4"/>
    <g id="ytick_5"/>
    <g id="ytick_6"/>
    <g id="ytick_7"/>
    <g id="ytick_8"/>
   </g>
   <g id="PathCollection_1">
    <defs>
     <path d="M 0 8.660254 
C 2.296726 8.660254 4.499694 7.747755 6.123724 6.123724 
C 7.747755 4.499694 8.660254 2.296726 8.660254 0 
C 8.660254 -2.296726 7.747755 -4.499694 6.123724 -6.123724 
C 4.499694 -7.747755 2.296726 -8.660254 0 -8.660254 
C -2.296726 -8.660254 -4.499694 -7.747755 -6.123724 -6.123724 
C -7.747755 -4.499694 -8.660254 -2.296726 -8.660254 0 
C -8.660254 2.296726 -7.747755 4.499694 -6.123724 6.123724 
C -4.499694 7.747755 -2.296726 8.660254 0 8.660254 
z
" id="C0_0_e6f21da93d"/>
    </defs>
    <g clip-path="url(#pa06b182237)">
     <use style="fill:#800000;stroke:#800000;" x="76.913752" xlink:href="#C0_0_e6f21da93d" y="262.80087"/>
    </g>
    <g clip-path="url(#pa06b182237)">
     <use style="fill:#800000;stroke:#800000;" x="239.492674" xlink:href="#C0_0_e6f21da93d" y="283.2207"/>
    </g>
    <g clip-path="url(#pa06b182237)">
     <use style="fill:#000080;stroke:#000080;" x="269.624995" xlink:href="#C0_0_e6f21da93d" y="57.002323"/>
    </g>
    <g clip-path="url(#pa06b182237)">
     <use style="fill:#000080;stroke:#000080;" x="395.406248" xlink:href="#C0_0_e6f21da93d" y="154.440107"/>
    </g>
    <g clip-path="url(#pa06b182237)">
     <use style="fill:#000080;stroke:#000080;" x="293.894005" xlink:href="#C0_0_e6f21da93d" y="139.366741"/>
    </g>
    <g clip-path="url(#pa06b182237)">
     <use style="fill:#000080;stroke:#000080;" x="172.30899" xlink:href="#C0_0_e6f21da93d" y="126.444306"/>
    </g>
    <g clip-path="url(#pa06b182237)">
     <use style="fill:#000080;stroke:#000080;" x="232.489954" xlink:href="#C0_0_e6f21da93d" y="185.250352"/>
    </g>
    <g clip-path="url(#pa06b182237)">
     <use style="fill:#800000;stroke:#800000;" x="370.273883" xlink:href="#C0_0_e6f21da93d" y="292.053677"/>
    </g>
    <g clip-path="url(#pa06b182237)">
     <use style="fill:#000080;stroke:#000080;" x="315.767887" xlink:href="#C0_0_e6f21da93d" y="228.043888"/>
    </g>
    <g clip-path="url(#pa06b182237)">
     <use style="fill:#000080;stroke:#000080;" x="167.564891" xlink:href="#C0_0_e6f21da93d" y="222.643405"/>
    </g>
   </g>
   <g id="patch_3">
    <path d="M 57.6 307.584 
L 57.6 41.472 
" style="fill:none;stroke:#000000;stroke-linecap:square;stroke-linejoin:miter;stroke-width:0.8;"/>
   </g>
   <g id="patch_4">
    <path d="M 414.72 307.584 
L 414.72 41.472 
" style="fill:none;stroke:#000000;stroke-linecap:square;stroke-linejoin:miter;stroke-width:0.8;"/>
   </g>
   <g id="patch_5">
    <path d="M 57.6 307.584 
L 414.72 307.584 
" style="fill:none;stroke:#000000;stroke-linecap:square;stroke-linejoin:miter;stroke-width:0.8;"/>
   </g>
   <g id="patch_6">
    <path d="M 57.6 41.472 
L 414.72 41.472 
" style="fill:none;stroke:#000000;stroke-linecap:square;stroke-linejoin:miter;stroke-width:0.8;"/>
   </g>
  </g>
 </g>
 <defs>
  <clipPath id="pa06b182237">
   <rect height="266.112" width="357.12" x="57.6" y="41.472"/>
  </clipPath>
 </defs>
</svg>
