<?xml version="1.0" encoding="utf-8" standalone="no"?>
<!DOCTYPE svg PUBLIC "-//W3C//DTD SVG 1.1//EN"
  "http://www.w3.org/Graphics/SVG/1.1/DTD/svg11.dtd">
<!-- Created with matplotlib (https://matplotlib.org/) -->
<svg height="345.6pt" version="1.1" viewBox="0 0 460.8 345.6" width="460.8pt" xmlns="http://www.w3.org/2000/svg" xmlns:xlink="http://www.w3.org/1999/xlink">
 <defs>
  <style type="text/css">
*{stroke-linecap:butt;stroke-linejoin:round;}
  </style>
 </defs>
 <g id="figure_1">
  <g id="patch_1">
   <path d="M 0 345.6 
L 460.8 345.6 
L 460.8 0 
L 0 0 
z
" style="fill:#ffffff;"/>
  </g>
  <g id="axes_1">
   <g id="patch_2">
    <path d="M 57.6 307.584 
L 414.72 307.584 
L 414.72 41.472 
L 57.6 41.472 
z
" style="fill:#ffffff;"/>
   </g>
   <g id="LineCollection_1">
    <path clip-path="url(#pdae0db11e4)" d="M 203.637987 155.621837 
L 112.746947 127.698187 
" style="fill:none;stroke:#000000;"/>
    <path clip-path="url(#pdae0db11e4)" d="M 98.527648 168.445074 
L 112.746947 127.698187 
" style="fill:none;stroke:#000000;"/>
    <path clip-path="url(#pdae0db11e4)" d="M 154.642922 208.754125 
L 112.746947 127.698187 
" style="fill:none;stroke:#000000;"/>
    <path clip-path="url(#pdae0db11e4)" d="M 203.637987 155.621837 
L 237.487336 82.481386 
" style="fill:none;stroke:#000000;"/>
    <path clip-path="url(#pdae0db11e4)" d="M 112.746947 127.698187 
L 237.487336 82.481386 
" style="fill:none;stroke:#000000;"/>
    <path clip-path="url(#pdae0db11e4)" d="M 321.560177 195.213567 
L 279.333519 155.08553 
" style="fill:none;stroke:#000000;"/>
    <path clip-path="url(#pdae0db11e4)" d="M 237.487336 82.481386 
L 279.333519 155.08553 
" style="fill:none;stroke:#000000;"/>
    <path clip-path="url(#pdae0db11e4)" d="M 203.637987 155.621837 
L 395.150123 139.389358 
" style="fill:none;stroke:#000000;"/>
    <path clip-path="url(#pdae0db11e4)" d="M 203.637987 155.621837 
L 216.044101 217.712457 
" style="fill:none;stroke:#000000;"/>
    <path clip-path="url(#pdae0db11e4)" d="M 98.527648 168.445074 
L 216.044101 217.712457 
" style="fill:none;stroke:#000000;"/>
    <path clip-path="url(#pdae0db11e4)" d="M 321.560177 195.213567 
L 216.044101 217.712457 
" style="fill:none;stroke:#000000;"/>
    <path clip-path="url(#pdae0db11e4)" d="M 154.642922 208.754125 
L 216.044101 217.712457 
" style="fill:none;stroke:#000000;"/>
    <path clip-path="url(#pdae0db11e4)" d="M 98.527648 168.445074 
L 198.43731 192.869775 
" style="fill:none;stroke:#000000;"/>
    <path clip-path="url(#pdae0db11e4)" d="M 283.294644 279.602105 
L 198.43731 192.869775 
" style="fill:none;stroke:#000000;"/>
    <path clip-path="url(#pdae0db11e4)" d="M 154.642922 208.754125 
L 198.43731 192.869775 
" style="fill:none;stroke:#000000;"/>
    <path clip-path="url(#pdae0db11e4)" d="M 112.746947 127.698187 
L 198.43731 192.869775 
" style="fill:none;stroke:#000000;"/>
    <path clip-path="url(#pdae0db11e4)" d="M 279.333519 155.08553 
L 198.43731 192.869775 
" style="fill:none;stroke:#000000;"/>
    <path clip-path="url(#pdae0db11e4)" d="M 283.294644 279.602105 
L 160.815181 292.598861 
" style="fill:none;stroke:#000000;"/>
    <path clip-path="url(#pdae0db11e4)" d="M 154.642922 208.754125 
L 160.815181 292.598861 
" style="fill:none;stroke:#000000;"/>
    <path clip-path="url(#pdae0db11e4)" d="M 216.044101 217.712457 
L 160.815181 292.598861 
" style="fill:none;stroke:#000000;"/>
    <path clip-path="url(#pdae0db11e4)" d="M 203.637987 155.621837 
L 109.941213 56.457139 
" style="fill:none;stroke:#000000;"/>
    <path clip-path="url(#pdae0db11e4)" d="M 203.637987 155.621837 
L 77.169877 246.854641 
" style="fill:none;stroke:#000000;"/>
    <path clip-path="url(#pdae0db11e4)" d="M 154.642922 208.754125 
L 77.169877 246.854641 
" style="fill:none;stroke:#000000;"/>
    <path clip-path="url(#pdae0db11e4)" d="M 160.815181 292.598861 
L 77.169877 246.854641 
" style="fill:none;stroke:#000000;"/>
    <path clip-path="url(#pdae0db11e4)" d="M 203.637987 155.621837 
L 222.531218 254.152593 
" style="fill:none;stroke:#000000;"/>
    <path clip-path="url(#pdae0db11e4)" d="M 321.560177 195.213567 
L 222.531218 254.152593 
" style="fill:none;stroke:#000000;"/>
    <path clip-path="url(#pdae0db11e4)" d="M 283.294644 279.602105 
L 222.531218 254.152593 
" style="fill:none;stroke:#000000;"/>
    <path clip-path="url(#pdae0db11e4)" d="M 154.642922 208.754125 
L 222.531218 254.152593 
" style="fill:none;stroke:#000000;"/>
    <path clip-path="url(#pdae0db11e4)" d="M 216.044101 217.712457 
L 222.531218 254.152593 
" style="fill:none;stroke:#000000;"/>
    <path clip-path="url(#pdae0db11e4)" d="M 198.43731 192.869775 
L 222.531218 254.152593 
" style="fill:none;stroke:#000000;"/>
    <path clip-path="url(#pdae0db11e4)" d="M 160.815181 292.598861 
L 222.531218 254.152593 
" style="fill:none;stroke:#000000;"/>
    <path clip-path="url(#pdae0db11e4)" d="M 203.637987 155.621837 
L 306.980327 145.597271 
" style="fill:none;stroke:#000000;"/>
    <path clip-path="url(#pdae0db11e4)" d="M 321.560177 195.213567 
L 306.980327 145.597271 
" style="fill:none;stroke:#000000;"/>
    <path clip-path="url(#pdae0db11e4)" d="M 154.642922 208.754125 
L 306.980327 145.597271 
" style="fill:none;stroke:#000000;"/>
    <path clip-path="url(#pdae0db11e4)" d="M 237.487336 82.481386 
L 306.980327 145.597271 
" style="fill:none;stroke:#000000;"/>
    <path clip-path="url(#pdae0db11e4)" d="M 395.150123 139.389358 
L 306.980327 145.597271 
" style="fill:none;stroke:#000000;"/>
    <path clip-path="url(#pdae0db11e4)" d="M 198.43731 192.869775 
L 306.980327 145.597271 
" style="fill:none;stroke:#000000;"/>
    <path clip-path="url(#pdae0db11e4)" d="M 283.294644 279.602105 
L 370.910179 212.734003 
" style="fill:none;stroke:#000000;"/>
    <path clip-path="url(#pdae0db11e4)" d="M 279.333519 155.08553 
L 370.910179 212.734003 
" style="fill:none;stroke:#000000;"/>
    <path clip-path="url(#pdae0db11e4)" d="M 395.150123 139.389358 
L 370.910179 212.734003 
" style="fill:none;stroke:#000000;"/>
    <path clip-path="url(#pdae0db11e4)" d="M 216.044101 217.712457 
L 370.910179 212.734003 
" style="fill:none;stroke:#000000;"/>
    <path clip-path="url(#pdae0db11e4)" d="M 306.980327 145.597271 
L 370.910179 212.734003 
" style="fill:none;stroke:#000000;"/>
    <path clip-path="url(#pdae0db11e4)" d="M 203.637987 155.621837 
L 163.348563 125.899201 
" style="fill:none;stroke:#000000;"/>
    <path clip-path="url(#pdae0db11e4)" d="M 154.642922 208.754125 
L 163.348563 125.899201 
" style="fill:none;stroke:#000000;"/>
    <path clip-path="url(#pdae0db11e4)" d="M 112.746947 127.698187 
L 163.348563 125.899201 
" style="fill:none;stroke:#000000;"/>
    <path clip-path="url(#pdae0db11e4)" d="M 279.333519 155.08553 
L 163.348563 125.899201 
" style="fill:none;stroke:#000000;"/>
    <path clip-path="url(#pdae0db11e4)" d="M 216.044101 217.712457 
L 163.348563 125.899201 
" style="fill:none;stroke:#000000;"/>
    <path clip-path="url(#pdae0db11e4)" d="M 109.941213 56.457139 
L 163.348563 125.899201 
" style="fill:none;stroke:#000000;"/>
    <path clip-path="url(#pdae0db11e4)" d="M 203.637987 155.621837 
L 238.680553 127.092126 
" style="fill:none;stroke:#000000;"/>
    <path clip-path="url(#pdae0db11e4)" d="M 98.527648 168.445074 
L 238.680553 127.092126 
" style="fill:none;stroke:#000000;"/>
    <path clip-path="url(#pdae0db11e4)" d="M 321.560177 195.213567 
L 238.680553 127.092126 
" style="fill:none;stroke:#000000;"/>
    <path clip-path="url(#pdae0db11e4)" d="M 237.487336 82.481386 
L 238.680553 127.092126 
" style="fill:none;stroke:#000000;"/>
    <path clip-path="url(#pdae0db11e4)" d="M 306.980327 145.597271 
L 238.680553 127.092126 
" style="fill:none;stroke:#000000;"/>
    <path clip-path="url(#pdae0db11e4)" d="M 163.348563 125.899201 
L 238.680553 127.092126 
" style="fill:none;stroke:#000000;"/>
    <path clip-path="url(#pdae0db11e4)" d="M 203.637987 155.621837 
L 269.173412 210.921714 
" style="fill:none;stroke:#000000;"/>
    <path clip-path="url(#pdae0db11e4)" d="M 283.294644 279.602105 
L 269.173412 210.921714 
" style="fill:none;stroke:#000000;"/>
    <path clip-path="url(#pdae0db11e4)" d="M 154.642922 208.754125 
L 269.173412 210.921714 
" style="fill:none;stroke:#000000;"/>
    <path clip-path="url(#pdae0db11e4)" d="M 279.333519 155.08553 
L 269.173412 210.921714 
" style="fill:none;stroke:#000000;"/>
    <path clip-path="url(#pdae0db11e4)" d="M 216.044101 217.712457 
L 269.173412 210.921714 
" style="fill:none;stroke:#000000;"/>
    <path clip-path="url(#pdae0db11e4)" d="M 238.680553 127.092126 
L 269.173412 210.921714 
" style="fill:none;stroke:#000000;"/>
   </g>
   <g id="matplotlib.axis_1">
    <g id="xtick_1"/>
    <g id="xtick_2"/>
    <g id="xtick_3"/>
    <g id="xtick_4"/>
    <g id="xtick_5"/>
    <g id="xtick_6"/>
    <g id="xtick_7"/>
    <g id="xtick_8"/>
   </g>
   <g id="matplotlib.axis_2">
    <g id="ytick_1"/>
    <g id="ytick_2"/>
    <g id="ytick_3"/>
    <g id="ytick_4"/>
    <g id="ytick_5"/>
    <g id="ytick_6"/>
    <g id="ytick_7"/>
    <g id="ytick_8"/>
    <g id="ytick_9"/>
   </g>
   <g id="PathCollection_1">
    <defs>
     <path d="M 0 8.660254 
C 2.296726 8.660254 4.499694 7.747755 6.123724 6.123724 
C 7.747755 4.499694 8.660254 2.296726 8.660254 0 
C 8.660254 -2.296726 7.747755 -4.499694 6.123724 -6.123724 
C 4.499694 -7.747755 2.296726 -8.660254 0 -8.660254 
C -2.296726 -8.660254 -4.499694 -7.747755 -6.123724 -6.123724 
C -7.747755 -4.499694 -8.660254 -2.296726 -8.660254 0 
C -8.660254 2.296726 -7.747755 4.499694 -6.123724 6.123724 
C -4.499694 7.747755 -2.296726 8.660254 0 8.660254 
z
" id="C0_0_370820cf2c"/>
    </defs>
    <g clip-path="url(#pdae0db11e4)">
     <use style="fill:#000080;stroke:#000080;" x="203.637987" xlink:href="#C0_0_370820cf2c" y="155.621837"/>
    </g>
    <g clip-path="url(#pdae0db11e4)">
     <use style="fill:#000080;stroke:#000080;" x="98.527648" xlink:href="#C0_0_370820cf2c" y="168.445074"/>
    </g>
    <g clip-path="url(#pdae0db11e4)">
     <use style="fill:#000080;stroke:#000080;" x="321.560177" xlink:href="#C0_0_370820cf2c" y="195.213567"/>
    </g>
    <g clip-path="url(#pdae0db11e4)">
     <use style="fill:#800000;stroke:#800000;" x="283.294644" xlink:href="#C0_0_370820cf2c" y="279.602105"/>
    </g>
    <g clip-path="url(#pdae0db11e4)">
     <use style="fill:#000080;stroke:#000080;" x="154.642922" xlink:href="#C0_0_370820cf2c" y="208.754125"/>
    </g>
    <g clip-path="url(#pdae0db11e4)">
     <use style="fill:#800000;stroke:#800000;" x="112.746947" xlink:href="#C0_0_370820cf2c" y="127.698187"/>
    </g>
    <g clip-path="url(#pdae0db11e4)">
     <use style="fill:#000080;stroke:#000080;" x="237.487336" xlink:href="#C0_0_370820cf2c" y="82.481386"/>
    </g>
    <g clip-path="url(#pdae0db11e4)">
     <use style="fill:#800000;stroke:#800000;" x="279.333519" xlink:href="#C0_0_370820cf2c" y="155.08553"/>
    </g>
    <g clip-path="url(#pdae0db11e4)">
     <use style="fill:#800000;stroke:#800000;" x="395.150123" xlink:href="#C0_0_370820cf2c" y="139.389358"/>
    </g>
    <g clip-path="url(#pdae0db11e4)">
     <use style="fill:#800000;stroke:#800000;" x="216.044101" xlink:href="#C0_0_370820cf2c" y="217.712457"/>
    </g>
    <g clip-path="url(#pdae0db11e4)">
     <use style="fill:#000080;stroke:#000080;" x="198.43731" xlink:href="#C0_0_370820cf2c" y="192.869775"/>
    </g>
    <g clip-path="url(#pdae0db11e4)">
     <use style="fill:#000080;stroke:#000080;" x="160.815181" xlink:href="#C0_0_370820cf2c" y="292.598861"/>
    </g>
    <g clip-path="url(#pdae0db11e4)">
     <use style="fill:#800000;stroke:#800000;" x="109.941213" xlink:href="#C0_0_370820cf2c" y="56.457139"/>
    </g>
    <g clip-path="url(#pdae0db11e4)">
     <use style="fill:#800000;stroke:#800000;" x="77.169877" xlink:href="#C0_0_370820cf2c" y="246.854641"/>
    </g>
    <g clip-path="url(#pdae0db11e4)">
     <use style="fill:#000080;stroke:#000080;" x="222.531218" xlink:href="#C0_0_370820cf2c" y="254.152593"/>
    </g>
    <g clip-path="url(#pdae0db11e4)">
     <use style="fill:#000080;stroke:#000080;" x="306.980327" xlink:href="#C0_0_370820cf2c" y="145.597271"/>
    </g>
    <g clip-path="url(#pdae0db11e4)">
     <use style="fill:#000080;stroke:#000080;" x="370.910179" xlink:href="#C0_0_370820cf2c" y="212.734003"/>
    </g>
    <g clip-path="url(#pdae0db11e4)">
     <use style="fill:#000080;stroke:#000080;" x="163.348563" xlink:href="#C0_0_370820cf2c" y="125.899201"/>
    </g>
    <g clip-path="url(#pdae0db11e4)">
     <use style="fill:#800000;stroke:#800000;" x="238.680553" xlink:href="#C0_0_370820cf2c" y="127.092126"/>
    </g>
    <g clip-path="url(#pdae0db11e4)">
     <use style="fill:#000080;stroke:#000080;" x="269.173412" xlink:href="#C0_0_370820cf2c" y="210.921714"/>
    </g>
   </g>
   <g id="patch_3">
    <path d="M 57.6 307.584 
L 57.6 41.472 
" style="fill:none;stroke:#000000;stroke-linecap:square;stroke-linejoin:miter;stroke-width:0.8;"/>
   </g>
   <g id="patch_4">
    <path d="M 414.72 307.584 
L 414.72 41.472 
" style="fill:none;stroke:#000000;stroke-linecap:square;stroke-linejoin:miter;stroke-width:0.8;"/>
   </g>
   <g id="patch_5">
    <path d="M 57.6 307.584 
L 414.72 307.584 
" style="fill:none;stroke:#000000;stroke-linecap:square;stroke-linejoin:miter;stroke-width:0.8;"/>
   </g>
   <g id="patch_6">
    <path d="M 57.6 41.472 
L 414.72 41.472 
" style="fill:none;stroke:#000000;stroke-linecap:square;stroke-linejoin:miter;stroke-width:0.8;"/>
   </g>
  </g>
 </g>
 <defs>
  <clipPath id="pdae0db11e4">
   <rect height="266.112" width="357.12" x="57.6" y="41.472"/>
  </clipPath>
 </defs>
</svg>
