<?xml version="1.0" encoding="utf-8" standalone="no"?>
<!DOCTYPE svg PUBLIC "-//W3C//DTD SVG 1.1//EN"
  "http://www.w3.org/Graphics/SVG/1.1/DTD/svg11.dtd">
<!-- Created with matplotlib (https://matplotlib.org/) -->
<svg height="345.6pt" version="1.1" viewBox="0 0 460.8 345.6" width="460.8pt" xmlns="http://www.w3.org/2000/svg" xmlns:xlink="http://www.w3.org/1999/xlink">
 <defs>
  <style type="text/css">
*{stroke-linecap:butt;stroke-linejoin:round;}
  </style>
 </defs>
 <g id="figure_1">
  <g id="patch_1">
   <path d="M 0 345.6 
L 460.8 345.6 
L 460.8 0 
L 0 0 
z
" style="fill:#ffffff;"/>
  </g>
  <g id="axes_1">
   <g id="patch_2">
    <path d="M 57.6 307.584 
L 414.72 307.584 
L 414.72 41.472 
L 57.6 41.472 
z
" style="fill:#ffffff;"/>
   </g>
   <g id="LineCollection_1">
    <path clip-path="url(#p0db5bc0ce4)" d="M 229.455817 292.533088 
L 76.643139 194.468983 
" style="fill:none;stroke:#000000;"/>
    <path clip-path="url(#p0db5bc0ce4)" d="M 161.787583 120.540713 
L 76.643139 194.468983 
" style="fill:none;stroke:#000000;"/>
    <path clip-path="url(#p0db5bc0ce4)" d="M 161.787583 120.540713 
L 336.887017 93.771417 
" style="fill:none;stroke:#000000;"/>
    <path clip-path="url(#p0db5bc0ce4)" d="M 161.787583 120.540713 
L 184.051397 56.522912 
" style="fill:none;stroke:#000000;"/>
    <path clip-path="url(#p0db5bc0ce4)" d="M 76.643139 194.468983 
L 184.051397 56.522912 
" style="fill:none;stroke:#000000;"/>
    <path clip-path="url(#p0db5bc0ce4)" d="M 336.887017 93.771417 
L 184.051397 56.522912 
" style="fill:none;stroke:#000000;"/>
    <path clip-path="url(#p0db5bc0ce4)" d="M 229.455817 292.533088 
L 278.728039 176.359713 
" style="fill:none;stroke:#000000;"/>
    <path clip-path="url(#p0db5bc0ce4)" d="M 161.787583 120.540713 
L 278.728039 176.359713 
" style="fill:none;stroke:#000000;"/>
    <path clip-path="url(#p0db5bc0ce4)" d="M 336.887017 93.771417 
L 278.728039 176.359713 
" style="fill:none;stroke:#000000;"/>
    <path clip-path="url(#p0db5bc0ce4)" d="M 184.051397 56.522912 
L 278.728039 176.359713 
" style="fill:none;stroke:#000000;"/>
    <path clip-path="url(#p0db5bc0ce4)" d="M 229.455817 292.533088 
L 395.676861 235.627193 
" style="fill:none;stroke:#000000;"/>
    <path clip-path="url(#p0db5bc0ce4)" d="M 336.887017 93.771417 
L 395.676861 235.627193 
" style="fill:none;stroke:#000000;"/>
    <path clip-path="url(#p0db5bc0ce4)" d="M 278.728039 176.359713 
L 395.676861 235.627193 
" style="fill:none;stroke:#000000;"/>
   </g>
   <g id="matplotlib.axis_1">
    <g id="xtick_1"/>
    <g id="xtick_2"/>
    <g id="xtick_3"/>
    <g id="xtick_4"/>
    <g id="xtick_5"/>
    <g id="xtick_6"/>
    <g id="xtick_7"/>
    <g id="xtick_8"/>
    <g id="xtick_9"/>
   </g>
   <g id="matplotlib.axis_2">
    <g id="ytick_1"/>
    <g id="ytick_2"/>
    <g id="ytick_3"/>
    <g id="ytick_4"/>
    <g id="ytick_5"/>
    <g id="ytick_6"/>
    <g id="ytick_7"/>
    <g id="ytick_8"/>
   </g>
   <g id="PathCollection_1">
    <defs>
     <path d="M 0 8.660254 
C 2.296726 8.660254 4.499694 7.747755 6.123724 6.123724 
C 7.747755 4.499694 8.660254 2.296726 8.660254 0 
C 8.660254 -2.296726 7.747755 -4.499694 6.123724 -6.123724 
C 4.499694 -7.747755 2.296726 -8.660254 0 -8.660254 
C -2.296726 -8.660254 -4.499694 -7.747755 -6.123724 -6.123724 
C -7.747755 -4.499694 -8.660254 -2.296726 -8.660254 0 
C -8.660254 2.296726 -7.747755 4.499694 -6.123724 6.123724 
C -4.499694 7.747755 -2.296726 8.660254 0 8.660254 
z
" id="C0_0_28832c3fc1"/>
    </defs>
    <g clip-path="url(#p0db5bc0ce4)">
     <use style="fill:#800000;stroke:#800000;" x="229.455817" xlink:href="#C0_0_28832c3fc1" y="292.533088"/>
    </g>
    <g clip-path="url(#p0db5bc0ce4)">
     <use style="fill:#800000;stroke:#800000;" x="161.787583" xlink:href="#C0_0_28832c3fc1" y="120.540713"/>
    </g>
    <g clip-path="url(#p0db5bc0ce4)">
     <use style="fill:#000080;stroke:#000080;" x="76.643139" xlink:href="#C0_0_28832c3fc1" y="194.468983"/>
    </g>
    <g clip-path="url(#p0db5bc0ce4)">
     <use style="fill:#000080;stroke:#000080;" x="336.887017" xlink:href="#C0_0_28832c3fc1" y="93.771417"/>
    </g>
    <g clip-path="url(#p0db5bc0ce4)">
     <use style="fill:#000080;stroke:#000080;" x="184.051397" xlink:href="#C0_0_28832c3fc1" y="56.522912"/>
    </g>
    <g clip-path="url(#p0db5bc0ce4)">
     <use style="fill:#000080;stroke:#000080;" x="278.728039" xlink:href="#C0_0_28832c3fc1" y="176.359713"/>
    </g>
    <g clip-path="url(#p0db5bc0ce4)">
     <use style="fill:#000080;stroke:#000080;" x="395.676861" xlink:href="#C0_0_28832c3fc1" y="235.627193"/>
    </g>
   </g>
   <g id="patch_3">
    <path d="M 57.6 307.584 
L 57.6 41.472 
" style="fill:none;stroke:#000000;stroke-linecap:square;stroke-linejoin:miter;stroke-width:0.8;"/>
   </g>
   <g id="patch_4">
    <path d="M 414.72 307.584 
L 414.72 41.472 
" style="fill:none;stroke:#000000;stroke-linecap:square;stroke-linejoin:miter;stroke-width:0.8;"/>
   </g>
   <g id="patch_5">
    <path d="M 57.6 307.584 
L 414.72 307.584 
" style="fill:none;stroke:#000000;stroke-linecap:square;stroke-linejoin:miter;stroke-width:0.8;"/>
   </g>
   <g id="patch_6">
    <path d="M 57.6 41.472 
L 414.72 41.472 
" style="fill:none;stroke:#000000;stroke-linecap:square;stroke-linejoin:miter;stroke-width:0.8;"/>
   </g>
  </g>
 </g>
 <defs>
  <clipPath id="p0db5bc0ce4">
   <rect height="266.112" width="357.12" x="57.6" y="41.472"/>
  </clipPath>
 </defs>
</svg>
